<?xml version="1.0" encoding="UTF-8"?>
<svg version="1.1" xmlns="http://www.w3.org/2000/svg" width="512" height="512">
<path d="M0 0 C36.96 0 73.92 0 112 0 C112 5.28 112 10.56 112 16 C122.56 16 133.12 16 144 16 C144 21.28 144 26.56 144 32 C149.28 32 154.56 32 160 32 C160 37.28 160 42.56 160 48 C170.56 48 181.12 48 192 48 C192 58.56 192 69.12 192 80 C197.28 80 202.56 80 208 80 C208 85.28 208 90.56 208 96 C213.28 96 218.56 96 224 96 C224 106.56 224 117.12 224 128 C229.28 128 234.56 128 240 128 C240 164.96 240 201.92 240 240 C234.72 240 229.44 240 224 240 C224 250.56 224 261.12 224 272 C218.72 272 213.44 272 208 272 C208 277.28 208 282.56 208 288 C202.72 288 197.44 288 192 288 C192 298.56 192 309.12 192 320 C181.44 320 170.88 320 160 320 C160 325.28 160 330.56 160 336 C154.72 336 149.44 336 144 336 C144 341.28 144 346.56 144 352 C133.44 352 122.88 352 112 352 C112 357.28 112 362.56 112 368 C75.04 368 38.08 368 0 368 C0 362.72 0 357.44 0 352 C-10.56 352 -21.12 352 -32 352 C-32 346.72 -32 341.44 -32 336 C-37.28 336 -42.56 336 -48 336 C-48 330.72 -48 325.44 -48 320 C-58.56 320 -69.12 320 -80 320 C-80 309.44 -80 298.88 -80 288 C-85.28 288 -90.56 288 -96 288 C-96 282.72 -96 277.44 -96 272 C-101.28 272 -106.56 272 -112 272 C-112 261.44 -112 250.88 -112 240 C-117.28 240 -122.56 240 -128 240 C-128 203.04 -128 166.08 -128 128 C-122.72 128 -117.44 128 -112 128 C-112 117.44 -112 106.88 -112 96 C-106.72 96 -101.44 96 -96 96 C-96 90.72 -96 85.44 -96 80 C-90.72 80 -85.44 80 -80 80 C-80 69.44 -80 58.88 -80 48 C-69.44 48 -58.88 48 -48 48 C-48 42.72 -48 37.44 -48 32 C-42.72 32 -37.44 32 -32 32 C-32 26.72 -32 21.44 -32 16 C-21.44 16 -10.88 16 0 16 C0 10.72 0 5.44 0 0 Z " fill="#FFEE68" transform="translate(208,64)"/>
<path d="M0 0 C36.96 0 73.92 0 112 0 C112 5.28 112 10.56 112 16 C122.56 16 133.12 16 144 16 C144 21.28 144 26.56 144 32 C149.28 32 154.56 32 160 32 C160 37.28 160 42.56 160 48 C170.56 48 181.12 48 192 48 C192 58.56 192 69.12 192 80 C197.28 80 202.56 80 208 80 C208 85.28 208 90.56 208 96 C213.28 96 218.56 96 224 96 C224 106.56 224 117.12 224 128 C229.28 128 234.56 128 240 128 C240 164.96 240 201.92 240 240 C234.72 240 229.44 240 224 240 C224 250.56 224 261.12 224 272 C218.72 272 213.44 272 208 272 C208 277.28 208 282.56 208 288 C202.72 288 197.44 288 192 288 C192 298.56 192 309.12 192 320 C181.44 320 170.88 320 160 320 C160 325.28 160 330.56 160 336 C154.72 336 149.44 336 144 336 C144 341.28 144 346.56 144 352 C133.44 352 122.88 352 112 352 C112 357.28 112 362.56 112 368 C75.04 368 38.08 368 0 368 C0 362.72 0 357.44 0 352 C-10.56 352 -21.12 352 -32 352 C-32 346.72 -32 341.44 -32 336 C-37.28 336 -42.56 336 -48 336 C-48 330.72 -48 325.44 -48 320 C-58.56 320 -69.12 320 -80 320 C-80 309.44 -80 298.88 -80 288 C-85.28 288 -90.56 288 -96 288 C-96 282.72 -96 277.44 -96 272 C-101.28 272 -106.56 272 -112 272 C-112 261.44 -112 250.88 -112 240 C-117.28 240 -122.56 240 -128 240 C-128 203.04 -128 166.08 -128 128 C-122.72 128 -117.44 128 -112 128 C-112 117.44 -112 106.88 -112 96 C-106.72 96 -101.44 96 -96 96 C-96 90.72 -96 85.44 -96 80 C-90.72 80 -85.44 80 -80 80 C-80 69.44 -80 58.88 -80 48 C-69.44 48 -58.88 48 -48 48 C-48 42.72 -48 37.44 -48 32 C-42.72 32 -37.44 32 -32 32 C-32 26.72 -32 21.44 -32 16 C-21.44 16 -10.88 16 0 16 C0 10.72 0 5.44 0 0 Z M16 32 C16 37.28 16 42.56 16 48 C5.44 48 -5.12 48 -16 48 C-16 53.28 -16 58.56 -16 64 C-21.28 64 -26.56 64 -32 64 C-32 69.28 -32 74.56 -32 80 C-37.28 80 -42.56 80 -48 80 C-48 85.28 -48 90.56 -48 96 C-53.28 96 -58.56 96 -64 96 C-64 101.28 -64 106.56 -64 112 C-69.28 112 -74.56 112 -80 112 C-80 127.84 -80 143.68 -80 160 C-85.28 160 -90.56 160 -96 160 C-96 181.12 -96 202.24 -96 224 C-90.72 224 -85.44 224 -80 224 C-80 234.56 -80 245.12 -80 256 C-74.72 256 -69.44 256 -64 256 C-64 261.28 -64 266.56 -64 272 C-58.72 272 -53.44 272 -48 272 C-48 277.28 -48 282.56 -48 288 C-42.72 288 -37.44 288 -32 288 C-32 293.28 -32 298.56 -32 304 C-26.72 304 -21.44 304 -16 304 C-16 309.28 -16 314.56 -16 320 C-5.44 320 5.12 320 16 320 C16 325.28 16 330.56 16 336 C37.12 336 58.24 336 80 336 C80 330.72 80 325.44 80 320 C85.28 320 90.56 320 96 320 C96 314.72 96 309.44 96 304 C101.28 304 106.56 304 112 304 C112 298.72 112 293.44 112 288 C117.28 288 122.56 288 128 288 C128 282.72 128 277.44 128 272 C133.28 272 138.56 272 144 272 C144 266.72 144 261.44 144 256 C149.28 256 154.56 256 160 256 C160 250.72 160 245.44 160 240 C165.28 240 170.56 240 176 240 C176 229.44 176 218.88 176 208 C186.56 208 197.12 208 208 208 C208 186.88 208 165.76 208 144 C202.72 144 197.44 144 192 144 C192 133.44 192 122.88 192 112 C186.72 112 181.44 112 176 112 C176 106.72 176 101.44 176 96 C170.72 96 165.44 96 160 96 C160 90.72 160 85.44 160 80 C154.72 80 149.44 80 144 80 C144 74.72 144 69.44 144 64 C138.72 64 133.44 64 128 64 C128 58.72 128 53.44 128 48 C122.72 48 117.44 48 112 48 C112 42.72 112 37.44 112 32 C80.32 32 48.64 32 16 32 Z " fill="#F8B63F" transform="translate(208,64)"/>
<path d="M0 0 C5.28 0 10.56 0 16 0 C16 15.84 16 31.68 16 48 C10.72 48 5.44 48 0 48 C0 53.28 0 58.56 0 64 C10.56 64 21.12 64 32 64 C32 53.44 32 42.88 32 32 C37.28 32 42.56 32 48 32 C48 26.72 48 21.44 48 16 C53.28 16 58.56 16 64 16 C64 31.84 64 47.68 64 64 C58.72 64 53.44 64 48 64 C48 69.28 48 74.56 48 80 C42.72 80 37.44 80 32 80 C32 85.28 32 90.56 32 96 C5.6 96 -20.8 96 -48 96 C-48 101.28 -48 106.56 -48 112 C-16.32 112 15.36 112 48 112 C48 106.72 48 101.44 48 96 C53.28 96 58.56 96 64 96 C64 90.72 64 85.44 64 80 C69.28 80 74.56 80 80 80 C80 74.72 80 69.44 80 64 C85.28 64 90.56 64 96 64 C96 58.72 96 53.44 96 48 C101.28 48 106.56 48 112 48 C112 58.56 112 69.12 112 80 C106.72 80 101.44 80 96 80 C96 85.28 96 90.56 96 96 C90.72 96 85.44 96 80 96 C80 101.28 80 106.56 80 112 C74.72 112 69.44 112 64 112 C64 117.28 64 122.56 64 128 C58.72 128 53.44 128 48 128 C48 133.28 48 138.56 48 144 C42.72 144 37.44 144 32 144 C32 149.28 32 154.56 32 160 C26.72 160 21.44 160 16 160 C16 165.28 16 170.56 16 176 C-5.12 176 -26.24 176 -48 176 C-48 170.72 -48 165.44 -48 160 C-58.56 160 -69.12 160 -80 160 C-80 154.72 -80 149.44 -80 144 C-85.28 144 -90.56 144 -96 144 C-96 138.72 -96 133.44 -96 128 C-101.28 128 -106.56 128 -112 128 C-112 122.72 -112 117.44 -112 112 C-106.72 112 -101.44 112 -96 112 C-96 106.72 -96 101.44 -96 96 C-90.72 96 -85.44 96 -80 96 C-80 90.72 -80 85.44 -80 80 C-74.72 80 -69.44 80 -64 80 C-64 74.72 -64 69.44 -64 64 C-48.16 64 -32.32 64 -16 64 C-16 58.72 -16 53.44 -16 48 C-21.28 48 -26.56 48 -32 48 C-32 37.44 -32 26.88 -32 16 C-21.44 16 -10.88 16 0 16 C0 10.72 0 5.44 0 0 Z " fill="#FFEE68" transform="translate(272,224)"/>
<path d="M0 0 C10.56 0 21.12 0 32 0 C32 5.28 32 10.56 32 16 C37.28 16 42.56 16 48 16 C48 21.28 48 26.56 48 32 C58.56 32 69.12 32 80 32 C80 42.56 80 53.12 80 64 C85.28 64 90.56 64 96 64 C96 69.28 96 74.56 96 80 C101.28 80 106.56 80 112 80 C112 90.56 112 101.12 112 112 C117.28 112 122.56 112 128 112 C128 148.96 128 185.92 128 224 C122.72 224 117.44 224 112 224 C112 234.56 112 245.12 112 256 C106.72 256 101.44 256 96 256 C96 261.28 96 266.56 96 272 C90.72 272 85.44 272 80 272 C80 282.56 80 293.12 80 304 C69.44 304 58.88 304 48 304 C48 309.28 48 314.56 48 320 C42.72 320 37.44 320 32 320 C32 325.28 32 330.56 32 336 C21.44 336 10.88 336 0 336 C0 325.44 0 314.88 0 304 C5.28 304 10.56 304 16 304 C16 298.72 16 293.44 16 288 C21.28 288 26.56 288 32 288 C32 282.72 32 277.44 32 272 C37.28 272 42.56 272 48 272 C48 266.72 48 261.44 48 256 C53.28 256 58.56 256 64 256 C64 250.72 64 245.44 64 240 C69.28 240 74.56 240 80 240 C80 229.44 80 218.88 80 208 C85.28 208 90.56 208 96 208 C96 181.6 96 155.2 96 128 C90.72 128 85.44 128 80 128 C80 117.44 80 106.88 80 96 C74.72 96 69.44 96 64 96 C64 90.72 64 85.44 64 80 C58.72 80 53.44 80 48 80 C48 74.72 48 69.44 48 64 C42.72 64 37.44 64 32 64 C32 58.72 32 53.44 32 48 C26.72 48 21.44 48 16 48 C16 42.72 16 37.44 16 32 C10.72 32 5.44 32 0 32 C0 21.44 0 10.88 0 0 Z " fill="#D0751B" transform="translate(320,80)"/>
<path d="M0 0 C26.4 0 52.8 0 80 0 C80 5.28 80 10.56 80 16 C85.28 16 90.56 16 96 16 C96 21.28 96 26.56 96 32 C90.72 32 85.44 32 80 32 C80 47.84 80 63.68 80 80 C85.28 80 90.56 80 96 80 C96 85.28 96 90.56 96 96 C90.72 96 85.44 96 80 96 C80 106.56 80 117.12 80 128 C69.44 128 58.88 128 48 128 C48 122.72 48 117.44 48 112 C53.28 112 58.56 112 64 112 C64 96.16 64 80.32 64 64 C58.72 64 53.44 64 48 64 C48 69.28 48 74.56 48 80 C37.44 80 26.88 80 16 80 C16 90.56 16 101.12 16 112 C21.28 112 26.56 112 32 112 C32 117.28 32 122.56 32 128 C16.16 128 0.32 128 -16 128 C-16 133.28 -16 138.56 -16 144 C-21.28 144 -26.56 144 -32 144 C-32 138.72 -32 133.44 -32 128 C-37.28 128 -42.56 128 -48 128 C-48 101.6 -48 75.2 -48 48 C-42.72 48 -37.44 48 -32 48 C-32 42.72 -32 37.44 -32 32 C-26.72 32 -21.44 32 -16 32 C-16 26.72 -16 21.44 -16 16 C-10.72 16 -5.44 16 0 16 C0 10.72 0 5.44 0 0 Z " fill="#F8B43E" transform="translate(224,160)"/>
<path d="M0 0 C5.28 0 10.56 0 16 0 C16 5.28 16 10.56 16 16 C21.28 16 26.56 16 32 16 C32 26.56 32 37.12 32 48 C37.28 48 42.56 48 48 48 C48 69.12 48 90.24 48 112 C32.16 112 16.32 112 0 112 C0 117.28 0 122.56 0 128 C-5.28 128 -10.56 128 -16 128 C-16 133.28 -16 138.56 -16 144 C-21.28 144 -26.56 144 -32 144 C-32 149.28 -32 154.56 -32 160 C-37.28 160 -42.56 160 -48 160 C-48 165.28 -48 170.56 -48 176 C-79.68 176 -111.36 176 -144 176 C-144 170.72 -144 165.44 -144 160 C-117.6 160 -91.2 160 -64 160 C-64 154.72 -64 149.44 -64 144 C-58.72 144 -53.44 144 -48 144 C-48 138.72 -48 133.44 -48 128 C-42.72 128 -37.44 128 -32 128 C-32 112.16 -32 96.32 -32 80 C-42.56 80 -53.12 80 -64 80 C-64 64.16 -64 48.32 -64 32 C-48.16 32 -32.32 32 -16 32 C-16 26.72 -16 21.44 -16 16 C-10.72 16 -5.44 16 0 16 C0 10.72 0 5.44 0 0 Z " fill="#FFEE68" transform="translate(368,160)"/>
<path d="M0 0 C5.28 0 10.56 0 16 0 C16 15.84 16 31.68 16 48 C10.72 48 5.44 48 0 48 C0 53.28 0 58.56 0 64 C-5.28 64 -10.56 64 -16 64 C-16 69.28 -16 74.56 -16 80 C-21.28 80 -26.56 80 -32 80 C-32 106.4 -32 132.8 -32 160 C-26.72 160 -21.44 160 -16 160 C-16 170.56 -16 181.12 -16 192 C-21.28 192 -26.56 192 -32 192 C-32 197.28 -32 202.56 -32 208 C-42.56 208 -53.12 208 -64 208 C-64 202.72 -64 197.44 -64 192 C-69.28 192 -74.56 192 -80 192 C-80 181.44 -80 170.88 -80 160 C-85.28 160 -90.56 160 -96 160 C-96 144.16 -96 128.32 -96 112 C-90.72 112 -85.44 112 -80 112 C-80 117.28 -80 122.56 -80 128 C-74.72 128 -69.44 128 -64 128 C-64 122.72 -64 117.44 -64 112 C-58.72 112 -53.44 112 -48 112 C-48 106.72 -48 101.44 -48 96 C-53.28 96 -58.56 96 -64 96 C-64 90.72 -64 85.44 -64 80 C-58.72 80 -53.44 80 -48 80 C-48 69.44 -48 58.88 -48 48 C-42.72 48 -37.44 48 -32 48 C-32 42.72 -32 37.44 -32 32 C-26.72 32 -21.44 32 -16 32 C-16 26.72 -16 21.44 -16 16 C-10.72 16 -5.44 16 0 16 C0 10.72 0 5.44 0 0 Z " fill="#FFE867" transform="translate(208,128)"/>
<path d="M0 0 C5.28 0 10.56 0 16 0 C16 15.84 16 31.68 16 48 C10.72 48 5.44 48 0 48 C0 53.28 0 58.56 0 64 C10.56 64 21.12 64 32 64 C32 53.44 32 42.88 32 32 C37.28 32 42.56 32 48 32 C48 26.72 48 21.44 48 16 C53.28 16 58.56 16 64 16 C64 31.84 64 47.68 64 64 C58.72 64 53.44 64 48 64 C48 69.28 48 74.56 48 80 C42.72 80 37.44 80 32 80 C32 85.28 32 90.56 32 96 C0.32 96 -31.36 96 -64 96 C-64 85.44 -64 74.88 -64 64 C-48.16 64 -32.32 64 -16 64 C-16 58.72 -16 53.44 -16 48 C-21.28 48 -26.56 48 -32 48 C-32 37.44 -32 26.88 -32 16 C-21.44 16 -10.88 16 0 16 C0 10.72 0 5.44 0 0 Z " fill="#FFEE68" transform="translate(272,224)"/>
<path d="M0 0 C10.56 0 21.12 0 32 0 C32 5.28 32 10.56 32 16 C26.72 16 21.44 16 16 16 C16 21.28 16 26.56 16 32 C10.72 32 5.44 32 0 32 C0 37.28 0 42.56 0 48 C-5.28 48 -10.56 48 -16 48 C-16 53.28 -16 58.56 -16 64 C-21.28 64 -26.56 64 -32 64 C-32 74.56 -32 85.12 -32 96 C-37.28 96 -42.56 96 -48 96 C-48 101.28 -48 106.56 -48 112 C-42.72 112 -37.44 112 -32 112 C-32 117.28 -32 122.56 -32 128 C-37.28 128 -42.56 128 -48 128 C-48 133.28 -48 138.56 -48 144 C-53.28 144 -58.56 144 -64 144 C-64 138.72 -64 133.44 -64 128 C-69.28 128 -74.56 128 -80 128 C-80 122.72 -80 117.44 -80 112 C-74.72 112 -69.44 112 -64 112 C-64 96.16 -64 80.32 -64 64 C-58.72 64 -53.44 64 -48 64 C-48 58.72 -48 53.44 -48 48 C-42.72 48 -37.44 48 -32 48 C-32 42.72 -32 37.44 -32 32 C-26.72 32 -21.44 32 -16 32 C-16 26.72 -16 21.44 -16 16 C-10.72 16 -5.44 16 0 16 C0 10.72 0 5.44 0 0 Z " fill="#FFFFFF" transform="translate(192,112)"/>
<path d="M0 0 C5.28 0 10.56 0 16 0 C16 10.56 16 21.12 16 32 C10.72 32 5.44 32 0 32 C0 37.28 0 42.56 0 48 C-5.28 48 -10.56 48 -16 48 C-16 53.28 -16 58.56 -16 64 C-21.28 64 -26.56 64 -32 64 C-32 69.28 -32 74.56 -32 80 C-37.28 80 -42.56 80 -48 80 C-48 85.28 -48 90.56 -48 96 C-53.28 96 -58.56 96 -64 96 C-64 101.28 -64 106.56 -64 112 C-69.28 112 -74.56 112 -80 112 C-80 117.28 -80 122.56 -80 128 C-90.56 128 -101.12 128 -112 128 C-112 122.72 -112 117.44 -112 112 C-106.72 112 -101.44 112 -96 112 C-96 106.72 -96 101.44 -96 96 C-90.72 96 -85.44 96 -80 96 C-80 90.72 -80 85.44 -80 80 C-74.72 80 -69.44 80 -64 80 C-64 74.72 -64 69.44 -64 64 C-58.72 64 -53.44 64 -48 64 C-48 58.72 -48 53.44 -48 48 C-42.72 48 -37.44 48 -32 48 C-32 42.72 -32 37.44 -32 32 C-26.72 32 -21.44 32 -16 32 C-16 26.72 -16 21.44 -16 16 C-10.72 16 -5.44 16 0 16 C0 10.72 0 5.44 0 0 Z " fill="#FFF2A5" transform="translate(368,272)"/>
<path d="M0 0 C5.28 0 10.56 0 16 0 C16 31.68 16 63.36 16 96 C10.72 96 5.44 96 0 96 C0 101.28 0 106.56 0 112 C-5.28 112 -10.56 112 -16 112 C-16 117.28 -16 122.56 -16 128 C-47.68 128 -79.36 128 -112 128 C-112 122.72 -112 117.44 -112 112 C-85.6 112 -59.2 112 -32 112 C-32 106.72 -32 101.44 -32 96 C-26.72 96 -21.44 96 -16 96 C-16 90.72 -16 85.44 -16 80 C-10.72 80 -5.44 80 0 80 C0 53.6 0 27.2 0 0 Z " fill="#FFF2A5" transform="translate(336,208)"/>
<path d="M0 0 C10.56 0 21.12 0 32 0 C32 5.28 32 10.56 32 16 C26.72 16 21.44 16 16 16 C16 26.56 16 37.12 16 48 C10.72 48 5.44 48 0 48 C0 53.28 0 58.56 0 64 C-5.28 64 -10.56 64 -16 64 C-16 69.28 -16 74.56 -16 80 C-21.28 80 -26.56 80 -32 80 C-32 85.28 -32 90.56 -32 96 C-37.28 96 -42.56 96 -48 96 C-48 101.28 -48 106.56 -48 112 C-53.28 112 -58.56 112 -64 112 C-64 117.28 -64 122.56 -64 128 C-74.56 128 -85.12 128 -96 128 C-96 122.72 -96 117.44 -96 112 C-90.72 112 -85.44 112 -80 112 C-80 106.72 -80 101.44 -80 96 C-74.72 96 -69.44 96 -64 96 C-64 90.72 -64 85.44 -64 80 C-58.72 80 -53.44 80 -48 80 C-48 74.72 -48 69.44 -48 64 C-42.72 64 -37.44 64 -32 64 C-32 58.72 -32 53.44 -32 48 C-26.72 48 -21.44 48 -16 48 C-16 42.72 -16 37.44 -16 32 C-10.72 32 -5.44 32 0 32 C0 21.44 0 10.88 0 0 Z " fill="#E6B422" transform="translate(384,272)"/>
<path d="M0 0 C5.28 0 10.56 0 16 0 C16 15.84 16 31.68 16 48 C10.72 48 5.44 48 0 48 C0 53.28 0 58.56 0 64 C-5.28 64 -10.56 64 -16 64 C-16 69.28 -16 74.56 -16 80 C-31.84 80 -47.68 80 -64 80 C-64 74.72 -64 69.44 -64 64 C-58.72 64 -53.44 64 -48 64 C-48 58.72 -48 53.44 -48 48 C-37.44 48 -26.88 48 -16 48 C-16 37.44 -16 26.88 -16 16 C-10.72 16 -5.44 16 0 16 C0 10.72 0 5.44 0 0 Z " fill="#FFFFFF" transform="translate(320,240)"/>
<path d="M0 0 C10.56 0 21.12 0 32 0 C32 10.56 32 21.12 32 32 C26.72 32 21.44 32 16 32 C16 42.56 16 53.12 16 64 C21.28 64 26.56 64 32 64 C32 69.28 32 74.56 32 80 C21.44 80 10.88 80 0 80 C0 69.44 0 58.88 0 48 C-5.28 48 -10.56 48 -16 48 C-16 42.72 -16 37.44 -16 32 C-10.72 32 -5.44 32 0 32 C0 21.44 0 10.88 0 0 Z " fill="#8B5A2B" transform="translate(224,208)"/>
<path d="M0 0 C10.56 0 21.12 0 32 0 C32 10.56 32 21.12 32 32 C37.28 32 42.56 32 48 32 C48 37.28 48 42.56 48 48 C42.72 48 37.44 48 32 48 C32 58.56 32 69.12 32 80 C21.44 80 10.88 80 0 80 C0 74.72 0 69.44 0 64 C5.28 64 10.56 64 16 64 C16 48.16 16 32.32 16 16 C10.72 16 5.44 16 0 16 C0 10.72 0 5.44 0 0 Z " fill="#8B5A2B" transform="translate(272,208)"/>
<path d="M0 0 C36.96 0 73.92 0 112 0 C112 5.28 112 10.56 112 16 C75.04 16 38.08 16 0 16 C0 10.72 0 5.44 0 0 Z " fill="#3A250F" transform="translate(208,416)"/>
<path d="M0 0 C5.28 0 10.56 0 16 0 C16 15.84 16 31.68 16 48 C0.16 48 -15.68 48 -32 48 C-32 37.44 -32 26.88 -32 16 C-21.44 16 -10.88 16 0 16 C0 10.72 0 5.44 0 0 Z " fill="#FFFFFF" transform="translate(272,224)"/>
<path d="M0 0 C5.28 0 10.56 0 16 0 C16 36.96 16 73.92 16 112 C10.72 112 5.44 112 0 112 C0 75.04 0 38.08 0 0 Z " fill="#3A250F" transform="translate(432,192)"/>
<path d="M0 0 C5.28 0 10.56 0 16 0 C16 36.96 16 73.92 16 112 C10.72 112 5.44 112 0 112 C0 75.04 0 38.08 0 0 Z " fill="#3A250F" transform="translate(80,192)"/>
<path d="M0 0 C36.96 0 73.92 0 112 0 C112 5.28 112 10.56 112 16 C75.04 16 38.08 16 0 16 C0 10.72 0 5.44 0 0 Z " fill="#3A250F" transform="translate(208,64)"/>
<path d="M0 0 C26.4 0 52.8 0 80 0 C80 5.28 80 10.56 80 16 C53.6 16 27.2 16 0 16 C0 10.72 0 5.44 0 0 Z " fill="#F7B43B" transform="translate(224,320)"/>
<path d="M0 0 C5.28 0 10.56 0 16 0 C16 10.56 16 21.12 16 32 C10.72 32 5.44 32 0 32 C0 37.28 0 42.56 0 48 C-10.56 48 -21.12 48 -32 48 C-32 42.72 -32 37.44 -32 32 C-26.72 32 -21.44 32 -16 32 C-16 26.72 -16 21.44 -16 16 C-10.72 16 -5.44 16 0 16 C0 10.72 0 5.44 0 0 Z " fill="#FFF2A5" transform="translate(192,304)"/>
<path d="M0 0 C5.28 0 10.56 0 16 0 C16 26.4 16 52.8 16 80 C10.72 80 5.44 80 0 80 C0 53.6 0 27.2 0 0 Z " fill="#F7B43B" transform="translate(336,208)"/>
<path d="M0 0 C5.28 0 10.56 0 16 0 C16 5.28 16 10.56 16 16 C21.28 16 26.56 16 32 16 C32 26.56 32 37.12 32 48 C21.44 48 10.88 48 0 48 C0 32.16 0 16.32 0 0 Z " fill="#FFEE68" transform="translate(304,192)"/>
<path d="M0 0 C5.28 0 10.56 0 16 0 C16 26.4 16 52.8 16 80 C10.72 80 5.44 80 0 80 C0 53.6 0 27.2 0 0 Z " fill="#CF761B" transform="translate(176,208)"/>
<path d="M0 0 C5.28 0 10.56 0 16 0 C16 10.56 16 21.12 16 32 C10.72 32 5.44 32 0 32 C0 37.28 0 42.56 0 48 C-10.56 48 -21.12 48 -32 48 C-32 42.72 -32 37.44 -32 32 C-26.72 32 -21.44 32 -16 32 C-16 26.72 -16 21.44 -16 16 C-10.72 16 -5.44 16 0 16 C0 10.72 0 5.44 0 0 Z " fill="#FFF2A5" transform="translate(352,144)"/>
<path d="M0 0 C26.4 0 52.8 0 80 0 C80 5.28 80 10.56 80 16 C53.6 16 27.2 16 0 16 C0 10.72 0 5.44 0 0 Z " fill="#CF761B" transform="translate(224,160)"/>
<path d="M0 0 C15.84 0 31.68 0 48 0 C48 5.28 48 10.56 48 16 C42.72 16 37.44 16 32 16 C32 21.28 32 26.56 32 32 C26.72 32 21.44 32 16 32 C16 26.72 16 21.44 16 16 C10.72 16 5.44 16 0 16 C0 10.72 0 5.44 0 0 Z " fill="#FFE066" transform="translate(112,224)"/>
<path d="M0 0 C5.28 0 10.56 0 16 0 C16 10.56 16 21.12 16 32 C5.44 32 -5.12 32 -16 32 C-16 26.72 -16 21.44 -16 16 C-10.72 16 -5.44 16 0 16 C0 10.72 0 5.44 0 0 Z " fill="#3A250F" transform="translate(384,352)"/>
<path d="M0 0 C5.28 0 10.56 0 16 0 C16 5.28 16 10.56 16 16 C21.28 16 26.56 16 32 16 C32 21.28 32 26.56 32 32 C21.44 32 10.88 32 0 32 C0 21.44 0 10.88 0 0 Z " fill="#3A250F" transform="translate(128,352)"/>
<path d="M0 0 C5.28 0 10.56 0 16 0 C16 10.56 16 21.12 16 32 C5.44 32 -5.12 32 -16 32 C-16 26.72 -16 21.44 -16 16 C-10.72 16 -5.44 16 0 16 C0 10.72 0 5.44 0 0 Z " fill="#FFF2A5" transform="translate(368,272)"/>
<path d="M0 0 C5.28 0 10.56 0 16 0 C16 10.56 16 21.12 16 32 C5.44 32 -5.12 32 -16 32 C-16 26.72 -16 21.44 -16 16 C-10.72 16 -5.44 16 0 16 C0 10.72 0 5.44 0 0 Z " fill="#FFEE68" transform="translate(400,240)"/>
<path d="M0 0 C5.28 0 10.56 0 16 0 C16 5.28 16 10.56 16 16 C21.28 16 26.56 16 32 16 C32 21.28 32 26.56 32 32 C21.44 32 10.88 32 0 32 C0 21.44 0 10.88 0 0 Z " fill="#AA7E53" transform="translate(224,256)"/>
<path d="M0 0 C10.56 0 21.12 0 32 0 C32 10.56 32 21.12 32 32 C26.72 32 21.44 32 16 32 C16 26.72 16 21.44 16 16 C10.72 16 5.44 16 0 16 C0 10.72 0 5.44 0 0 Z " fill="#3A250F" transform="translate(368,112)"/>
<path d="M0 0 C10.56 0 21.12 0 32 0 C32 5.28 32 10.56 32 16 C26.72 16 21.44 16 16 16 C16 21.28 16 26.56 16 32 C10.72 32 5.44 32 0 32 C0 21.44 0 10.88 0 0 Z " fill="#3A250F" transform="translate(128,112)"/>
<path d="M0 0 C10.56 0 21.12 0 32 0 C32 5.28 32 10.56 32 16 C26.72 16 21.44 16 16 16 C16 21.28 16 26.56 16 32 C10.72 32 5.44 32 0 32 C0 21.44 0 10.88 0 0 Z " fill="#FFF2A5" transform="translate(240,96)"/>
<path d="M0 0 C10.56 0 21.12 0 32 0 C32 5.28 32 10.56 32 16 C21.44 16 10.88 16 0 16 C0 10.72 0 5.44 0 0 Z " fill="#3A250F" transform="translate(320,400)"/>
<path d="M0 0 C10.56 0 21.12 0 32 0 C32 5.28 32 10.56 32 16 C21.44 16 10.88 16 0 16 C0 10.72 0 5.44 0 0 Z " fill="#3A250F" transform="translate(176,400)"/>
<path d="M0 0 C10.56 0 21.12 0 32 0 C32 5.28 32 10.56 32 16 C21.44 16 10.88 16 0 16 C0 10.72 0 5.44 0 0 Z " fill="#FFF2A5" transform="translate(160,336)"/>
<path d="M0 0 C5.28 0 10.56 0 16 0 C16 10.56 16 21.12 16 32 C10.72 32 5.44 32 0 32 C0 21.44 0 10.88 0 0 Z " fill="#3A250F" transform="translate(416,304)"/>
<path d="M0 0 C5.28 0 10.56 0 16 0 C16 10.56 16 21.12 16 32 C10.72 32 5.44 32 0 32 C0 21.44 0 10.88 0 0 Z " fill="#3A250F" transform="translate(96,304)"/>
<path d="M0 0 C10.56 0 21.12 0 32 0 C32 5.28 32 10.56 32 16 C21.44 16 10.88 16 0 16 C0 10.72 0 5.44 0 0 Z " fill="#FFF2A5" transform="translate(320,288)"/>
<path d="M0 0 C10.56 0 21.12 0 32 0 C32 5.28 32 10.56 32 16 C21.44 16 10.88 16 0 16 C0 10.72 0 5.44 0 0 Z " fill="#FFF2A5" transform="translate(208,288)"/>
<path d="M0 0 C5.28 0 10.56 0 16 0 C16 10.56 16 21.12 16 32 C10.72 32 5.44 32 0 32 C0 21.44 0 10.88 0 0 Z " fill="#FFF2A5" transform="translate(272,224)"/>
<path d="M0 0 C5.28 0 10.56 0 16 0 C16 10.56 16 21.12 16 32 C10.72 32 5.44 32 0 32 C0 21.44 0 10.88 0 0 Z " fill="#FFF2A5" transform="translate(304,192)"/>
<path d="M0 0 C10.56 0 21.12 0 32 0 C32 5.28 32 10.56 32 16 C21.44 16 10.88 16 0 16 C0 10.72 0 5.44 0 0 Z " fill="#AA7E53" transform="translate(272,208)"/>
<path d="M0 0 C10.56 0 21.12 0 32 0 C32 5.28 32 10.56 32 16 C21.44 16 10.88 16 0 16 C0 10.72 0 5.44 0 0 Z " fill="#FFF2A5" transform="translate(320,176)"/>
<path d="M0 0 C5.28 0 10.56 0 16 0 C16 10.56 16 21.12 16 32 C10.72 32 5.44 32 0 32 C0 21.44 0 10.88 0 0 Z " fill="#3A250F" transform="translate(416,160)"/>
<path d="M0 0 C5.28 0 10.56 0 16 0 C16 10.56 16 21.12 16 32 C10.72 32 5.44 32 0 32 C0 21.44 0 10.88 0 0 Z " fill="#3A250F" transform="translate(96,160)"/>
<path d="M0 0 C5.28 0 10.56 0 16 0 C16 10.56 16 21.12 16 32 C10.72 32 5.44 32 0 32 C0 21.44 0 10.88 0 0 Z " fill="#FFE066" transform="translate(224,96)"/>
<path d="M0 0 C10.56 0 21.12 0 32 0 C32 5.28 32 10.56 32 16 C21.44 16 10.88 16 0 16 C0 10.72 0 5.44 0 0 Z " fill="#3A250F" transform="translate(320,80)"/>
<path d="M0 0 C10.56 0 21.12 0 32 0 C32 5.28 32 10.56 32 16 C21.44 16 10.88 16 0 16 C0 10.72 0 5.44 0 0 Z " fill="#3A250F" transform="translate(176,80)"/>
<path d="M0 0 C5.28 0 10.56 0 16 0 C16 5.28 16 10.56 16 16 C10.72 16 5.44 16 0 16 C0 10.72 0 5.44 0 0 Z " fill="#3A250F" transform="translate(352,384)"/>
<path d="M0 0 C5.28 0 10.56 0 16 0 C16 5.28 16 10.56 16 16 C10.72 16 5.44 16 0 16 C0 10.72 0 5.44 0 0 Z " fill="#FFFFFF" transform="translate(256,384)"/>
<path d="M0 0 C5.28 0 10.56 0 16 0 C16 5.28 16 10.56 16 16 C10.72 16 5.44 16 0 16 C0 10.72 0 5.44 0 0 Z " fill="#FFF2A5" transform="translate(240,384)"/>
<path d="M0 0 C5.28 0 10.56 0 16 0 C16 5.28 16 10.56 16 16 C10.72 16 5.44 16 0 16 C0 10.72 0 5.44 0 0 Z " fill="#3A250F" transform="translate(160,384)"/>
<path d="M0 0 C5.28 0 10.56 0 16 0 C16 5.28 16 10.56 16 16 C10.72 16 5.44 16 0 16 C0 10.72 0 5.44 0 0 Z " fill="#FFFFFF" transform="translate(272,368)"/>
<path d="M0 0 C5.28 0 10.56 0 16 0 C16 5.28 16 10.56 16 16 C10.72 16 5.44 16 0 16 C0 10.72 0 5.44 0 0 Z " fill="#FFF2A5" transform="translate(256,368)"/>
<path d="M0 0 C5.28 0 10.56 0 16 0 C16 5.28 16 10.56 16 16 C10.72 16 5.44 16 0 16 C0 10.72 0 5.44 0 0 Z " fill="#FFFFFF" transform="translate(288,352)"/>
<path d="M0 0 C5.28 0 10.56 0 16 0 C16 5.28 16 10.56 16 16 C10.72 16 5.44 16 0 16 C0 10.72 0 5.44 0 0 Z " fill="#FFF2A5" transform="translate(272,352)"/>
<path d="M0 0 C5.28 0 10.56 0 16 0 C16 5.28 16 10.56 16 16 C10.72 16 5.44 16 0 16 C0 10.72 0 5.44 0 0 Z " fill="#3A250F" transform="translate(400,336)"/>
<path d="M0 0 C5.28 0 10.56 0 16 0 C16 5.28 16 10.56 16 16 C10.72 16 5.44 16 0 16 C0 10.72 0 5.44 0 0 Z " fill="#FFFFFF" transform="translate(304,336)"/>
<path d="M0 0 C5.28 0 10.56 0 16 0 C16 5.28 16 10.56 16 16 C10.72 16 5.44 16 0 16 C0 10.72 0 5.44 0 0 Z " fill="#FFF2A5" transform="translate(288,336)"/>
<path d="M0 0 C5.28 0 10.56 0 16 0 C16 5.28 16 10.56 16 16 C10.72 16 5.44 16 0 16 C0 10.72 0 5.44 0 0 Z " fill="#FFFFFF" transform="translate(160,336)"/>
<path d="M0 0 C5.28 0 10.56 0 16 0 C16 5.28 16 10.56 16 16 C10.72 16 5.44 16 0 16 C0 10.72 0 5.44 0 0 Z " fill="#3A250F" transform="translate(112,336)"/>
<path d="M0 0 C5.28 0 10.56 0 16 0 C16 5.28 16 10.56 16 16 C10.72 16 5.44 16 0 16 C0 10.72 0 5.44 0 0 Z " fill="#FFFFFF" transform="translate(320,320)"/>
<path d="M0 0 C5.28 0 10.56 0 16 0 C16 5.28 16 10.56 16 16 C10.72 16 5.44 16 0 16 C0 10.72 0 5.44 0 0 Z " fill="#FFF2A5" transform="translate(304,320)"/>
<path d="M0 0 C5.28 0 10.56 0 16 0 C16 5.28 16 10.56 16 16 C10.72 16 5.44 16 0 16 C0 10.72 0 5.44 0 0 Z " fill="#FFFFFF" transform="translate(176,320)"/>
<path d="M0 0 C5.28 0 10.56 0 16 0 C16 5.28 16 10.56 16 16 C10.72 16 5.44 16 0 16 C0 10.72 0 5.44 0 0 Z " fill="#FFFFFF" transform="translate(336,304)"/>
<path d="M0 0 C5.28 0 10.56 0 16 0 C16 5.28 16 10.56 16 16 C10.72 16 5.44 16 0 16 C0 10.72 0 5.44 0 0 Z " fill="#F7B43B" transform="translate(304,304)"/>
<path d="M0 0 C5.28 0 10.56 0 16 0 C16 5.28 16 10.56 16 16 C10.72 16 5.44 16 0 16 C0 10.72 0 5.44 0 0 Z " fill="#CF761B" transform="translate(208,304)"/>
<path d="M0 0 C5.28 0 10.56 0 16 0 C16 5.28 16 10.56 16 16 C10.72 16 5.44 16 0 16 C0 10.72 0 5.44 0 0 Z " fill="#FFFFFF" transform="translate(192,304)"/>
<path d="M0 0 C5.28 0 10.56 0 16 0 C16 5.28 16 10.56 16 16 C10.72 16 5.44 16 0 16 C0 10.72 0 5.44 0 0 Z " fill="#FFFFFF" transform="translate(352,288)"/>
<path d="M0 0 C5.28 0 10.56 0 16 0 C16 5.28 16 10.56 16 16 C10.72 16 5.44 16 0 16 C0 10.72 0 5.44 0 0 Z " fill="#F7B43B" transform="translate(320,288)"/>
<path d="M0 0 C5.28 0 10.56 0 16 0 C16 5.28 16 10.56 16 16 C10.72 16 5.44 16 0 16 C0 10.72 0 5.44 0 0 Z " fill="#FFFFFF" transform="translate(208,288)"/>
<path d="M0 0 C5.28 0 10.56 0 16 0 C16 5.28 16 10.56 16 16 C10.72 16 5.44 16 0 16 C0 10.72 0 5.44 0 0 Z " fill="#E29240" transform="translate(192,288)"/>
<path d="M0 0 C5.28 0 10.56 0 16 0 C16 5.28 16 10.56 16 16 C10.72 16 5.44 16 0 16 C0 10.72 0 5.44 0 0 Z " fill="#FFFFFF" transform="translate(368,272)"/>
<path d="M0 0 C5.28 0 10.56 0 16 0 C16 5.28 16 10.56 16 16 C10.72 16 5.44 16 0 16 C0 10.72 0 5.44 0 0 Z " fill="#FFF2A5" transform="translate(352,272)"/>
<path d="M0 0 C5.28 0 10.56 0 16 0 C16 5.28 16 10.56 16 16 C10.72 16 5.44 16 0 16 C0 10.72 0 5.44 0 0 Z " fill="#8B5A2B" transform="translate(240,272)"/>
<path d="M0 0 C5.28 0 10.56 0 16 0 C16 5.28 16 10.56 16 16 C10.72 16 5.44 16 0 16 C0 10.72 0 5.44 0 0 Z " fill="#FFE066" transform="translate(208,272)"/>
<path d="M0 0 C5.28 0 10.56 0 16 0 C16 5.28 16 10.56 16 16 C10.72 16 5.44 16 0 16 C0 10.72 0 5.44 0 0 Z " fill="#FFFFFF" transform="translate(384,256)"/>
<path d="M0 0 C5.28 0 10.56 0 16 0 C16 5.28 16 10.56 16 16 C10.72 16 5.44 16 0 16 C0 10.72 0 5.44 0 0 Z " fill="#FFF2A5" transform="translate(368,256)"/>
<path d="M0 0 C5.28 0 10.56 0 16 0 C16 5.28 16 10.56 16 16 C10.72 16 5.44 16 0 16 C0 10.72 0 5.44 0 0 Z " fill="#FFEE68" transform="translate(272,256)"/>
<path d="M0 0 C5.28 0 10.56 0 16 0 C16 5.28 16 10.56 16 16 C10.72 16 5.44 16 0 16 C0 10.72 0 5.44 0 0 Z " fill="#FFF2A5" transform="translate(256,256)"/>
<path d="M0 0 C5.28 0 10.56 0 16 0 C16 5.28 16 10.56 16 16 C10.72 16 5.44 16 0 16 C0 10.72 0 5.44 0 0 Z " fill="#FFFFFF" transform="translate(240,256)"/>
<path d="M0 0 C5.28 0 10.56 0 16 0 C16 5.28 16 10.56 16 16 C10.72 16 5.44 16 0 16 C0 10.72 0 5.44 0 0 Z " fill="#FFFFFF" transform="translate(400,240)"/>
<path d="M0 0 C5.28 0 10.56 0 16 0 C16 5.28 16 10.56 16 16 C10.72 16 5.44 16 0 16 C0 10.72 0 5.44 0 0 Z " fill="#FFF2A5" transform="translate(384,240)"/>
<path d="M0 0 C5.28 0 10.56 0 16 0 C16 5.28 16 10.56 16 16 C10.72 16 5.44 16 0 16 C0 10.72 0 5.44 0 0 Z " fill="#FFE066" transform="translate(240,240)"/>
<path d="M0 0 C5.28 0 10.56 0 16 0 C16 5.28 16 10.56 16 16 C10.72 16 5.44 16 0 16 C0 10.72 0 5.44 0 0 Z " fill="#FFFFFF" transform="translate(128,240)"/>
<path d="M0 0 C5.28 0 10.56 0 16 0 C16 5.28 16 10.56 16 16 C10.72 16 5.44 16 0 16 C0 10.72 0 5.44 0 0 Z " fill="#FFFFFF" transform="translate(272,224)"/>
<path d="M0 0 C5.28 0 10.56 0 16 0 C16 5.28 16 10.56 16 16 C10.72 16 5.44 16 0 16 C0 10.72 0 5.44 0 0 Z " fill="#FFE066" transform="translate(256,224)"/>
<path d="M0 0 C5.28 0 10.56 0 16 0 C16 5.28 16 10.56 16 16 C10.72 16 5.44 16 0 16 C0 10.72 0 5.44 0 0 Z " fill="#AA7E53" transform="translate(240,224)"/>
<path d="M0 0 C5.28 0 10.56 0 16 0 C16 5.28 16 10.56 16 16 C10.72 16 5.44 16 0 16 C0 10.72 0 5.44 0 0 Z " fill="#FFFFFF" transform="translate(144,224)"/>
<path d="M0 0 C5.28 0 10.56 0 16 0 C16 5.28 16 10.56 16 16 C10.72 16 5.44 16 0 16 C0 10.72 0 5.44 0 0 Z " fill="#FFFFFF" transform="translate(112,224)"/>
<path d="M0 0 C5.28 0 10.56 0 16 0 C16 5.28 16 10.56 16 16 C10.72 16 5.44 16 0 16 C0 10.72 0 5.44 0 0 Z " fill="#8B5A2B" transform="translate(272,208)"/>
<path d="M0 0 C5.28 0 10.56 0 16 0 C16 5.28 16 10.56 16 16 C10.72 16 5.44 16 0 16 C0 10.72 0 5.44 0 0 Z " fill="#FFE066" transform="translate(112,208)"/>
<path d="M0 0 C5.28 0 10.56 0 16 0 C16 5.28 16 10.56 16 16 C10.72 16 5.44 16 0 16 C0 10.72 0 5.44 0 0 Z " fill="#CF761B" transform="translate(320,192)"/>
<path d="M0 0 C5.28 0 10.56 0 16 0 C16 5.28 16 10.56 16 16 C10.72 16 5.44 16 0 16 C0 10.72 0 5.44 0 0 Z " fill="#FFFFFF" transform="translate(304,192)"/>
<path d="M0 0 C5.28 0 10.56 0 16 0 C16 5.28 16 10.56 16 16 C10.72 16 5.44 16 0 16 C0 10.72 0 5.44 0 0 Z " fill="#FFE066" transform="translate(288,192)"/>
<path d="M0 0 C5.28 0 10.56 0 16 0 C16 5.28 16 10.56 16 16 C10.72 16 5.44 16 0 16 C0 10.72 0 5.44 0 0 Z " fill="#CF761B" transform="translate(192,192)"/>
<path d="M0 0 C5.28 0 10.56 0 16 0 C16 5.28 16 10.56 16 16 C10.72 16 5.44 16 0 16 C0 10.72 0 5.44 0 0 Z " fill="#FFFFFF" transform="translate(320,176)"/>
<path d="M0 0 C5.28 0 10.56 0 16 0 C16 5.28 16 10.56 16 16 C10.72 16 5.44 16 0 16 C0 10.72 0 5.44 0 0 Z " fill="#E29240" transform="translate(304,176)"/>
<path d="M0 0 C5.28 0 10.56 0 16 0 C16 5.28 16 10.56 16 16 C10.72 16 5.44 16 0 16 C0 10.72 0 5.44 0 0 Z " fill="#CF761B" transform="translate(208,176)"/>
<path d="M0 0 C5.28 0 10.56 0 16 0 C16 5.28 16 10.56 16 16 C10.72 16 5.44 16 0 16 C0 10.72 0 5.44 0 0 Z " fill="#FFFFFF" transform="translate(336,160)"/>
<path d="M0 0 C5.28 0 10.56 0 16 0 C16 5.28 16 10.56 16 16 C10.72 16 5.44 16 0 16 C0 10.72 0 5.44 0 0 Z " fill="#FFE066" transform="translate(320,160)"/>
<path d="M0 0 C5.28 0 10.56 0 16 0 C16 5.28 16 10.56 16 16 C10.72 16 5.44 16 0 16 C0 10.72 0 5.44 0 0 Z " fill="#3A250F" transform="translate(400,144)"/>
<path d="M0 0 C5.28 0 10.56 0 16 0 C16 5.28 16 10.56 16 16 C10.72 16 5.44 16 0 16 C0 10.72 0 5.44 0 0 Z " fill="#FFFFFF" transform="translate(352,144)"/>
<path d="M0 0 C5.28 0 10.56 0 16 0 C16 5.28 16 10.56 16 16 C10.72 16 5.44 16 0 16 C0 10.72 0 5.44 0 0 Z " fill="#FFE066" transform="translate(336,144)"/>
<path d="M0 0 C5.28 0 10.56 0 16 0 C16 5.28 16 10.56 16 16 C10.72 16 5.44 16 0 16 C0 10.72 0 5.44 0 0 Z " fill="#3A250F" transform="translate(112,144)"/>
<path d="M0 0 C5.28 0 10.56 0 16 0 C16 5.28 16 10.56 16 16 C10.72 16 5.44 16 0 16 C0 10.72 0 5.44 0 0 Z " fill="#FFFFFF" transform="translate(224,128)"/>
<path d="M0 0 C5.28 0 10.56 0 16 0 C16 5.28 16 10.56 16 16 C10.72 16 5.44 16 0 16 C0 10.72 0 5.44 0 0 Z " fill="#FFFFFF" transform="translate(240,112)"/>
<path d="M0 0 C5.28 0 10.56 0 16 0 C16 5.28 16 10.56 16 16 C10.72 16 5.44 16 0 16 C0 10.72 0 5.44 0 0 Z " fill="#3A250F" transform="translate(352,96)"/>
<path d="M0 0 C5.28 0 10.56 0 16 0 C16 5.28 16 10.56 16 16 C10.72 16 5.44 16 0 16 C0 10.72 0 5.44 0 0 Z " fill="#3A250F" transform="translate(160,96)"/>
</svg>
