<?xml version="1.0" encoding="UTF-8"?>
<svg version="1.1" xmlns="http://www.w3.org/2000/svg" width="512" height="512">
<path d="M0 0 C15.84 0 31.68 0 48 0 C48 5.28 48 10.56 48 16 C53.28 16 58.56 16 64 16 C64 21.28 64 26.56 64 32 C79.84 32 95.68 32 112 32 C112 37.28 112 42.56 112 48 C122.56 48 133.12 48 144 48 C144 53.28 144 58.56 144 64 C170.4 64 196.8 64 224 64 C224 69.28 224 74.56 224 80 C229.28 80 234.56 80 240 80 C240 127.52 240 175.04 240 224 C234.72 224 229.44 224 224 224 C224 239.84 224 255.68 224 272 C218.72 272 213.44 272 208 272 C208 282.56 208 293.12 208 304 C202.72 304 197.44 304 192 304 C192 319.84 192 335.68 192 352 C186.72 352 181.44 352 176 352 C176 357.28 176 362.56 176 368 C170.72 368 165.44 368 160 368 C160 373.28 160 378.56 160 384 C154.72 384 149.44 384 144 384 C144 389.28 144 394.56 144 400 C138.72 400 133.44 400 128 400 C128 405.28 128 410.56 128 416 C122.72 416 117.44 416 112 416 C112 421.28 112 426.56 112 432 C106.72 432 101.44 432 96 432 C96 437.28 96 442.56 96 448 C90.72 448 85.44 448 80 448 C80 453.28 80 458.56 80 464 C74.72 464 69.44 464 64 464 C64 469.28 64 474.56 64 480 C58.72 480 53.44 480 48 480 C48 485.28 48 490.56 48 496 C32.16 496 16.32 496 0 496 C0 490.72 0 485.44 0 480 C-5.28 480 -10.56 480 -16 480 C-16 474.72 -16 469.44 -16 464 C-21.28 464 -26.56 464 -32 464 C-32 458.72 -32 453.44 -32 448 C-37.28 448 -42.56 448 -48 448 C-48 442.72 -48 437.44 -48 432 C-53.28 432 -58.56 432 -64 432 C-64 426.72 -64 421.44 -64 416 C-69.28 416 -74.56 416 -80 416 C-80 410.72 -80 405.44 -80 400 C-85.28 400 -90.56 400 -96 400 C-96 394.72 -96 389.44 -96 384 C-101.28 384 -106.56 384 -112 384 C-112 378.72 -112 373.44 -112 368 C-117.28 368 -122.56 368 -128 368 C-128 362.72 -128 357.44 -128 352 C-133.28 352 -138.56 352 -144 352 C-144 336.16 -144 320.32 -144 304 C-149.28 304 -154.56 304 -160 304 C-160 293.44 -160 282.88 -160 272 C-165.28 272 -170.56 272 -176 272 C-176 256.16 -176 240.32 -176 224 C-181.28 224 -186.56 224 -192 224 C-192 176.48 -192 128.96 -192 80 C-186.72 80 -181.44 80 -176 80 C-176 74.72 -176 69.44 -176 64 C-149.6 64 -123.2 64 -96 64 C-96 58.72 -96 53.44 -96 48 C-85.44 48 -74.88 48 -64 48 C-64 42.72 -64 37.44 -64 32 C-48.16 32 -32.32 32 -16 32 C-16 26.72 -16 21.44 -16 16 C-10.72 16 -5.44 16 0 16 C0 10.72 0 5.44 0 0 Z " fill="#000000" transform="translate(240,0)"/>
<path d="M0 0 C15.84 0 31.68 0 48 0 C48 5.28 48 10.56 48 16 C63.84 16 79.68 16 96 16 C96 21.28 96 26.56 96 32 C122.4 32 148.8 32 176 32 C176 37.28 176 42.56 176 48 C181.28 48 186.56 48 192 48 C192 63.84 192 79.68 192 96 C186.72 96 181.44 96 176 96 C176 111.84 176 127.68 176 144 C170.72 144 165.44 144 160 144 C160 154.56 160 165.12 160 176 C154.72 176 149.44 176 144 176 C144 191.84 144 207.68 144 224 C138.72 224 133.44 224 128 224 C128 229.28 128 234.56 128 240 C122.72 240 117.44 240 112 240 C112 245.28 112 250.56 112 256 C106.72 256 101.44 256 96 256 C96 261.28 96 266.56 96 272 C90.72 272 85.44 272 80 272 C80 277.28 80 282.56 80 288 C74.72 288 69.44 288 64 288 C64 293.28 64 298.56 64 304 C58.72 304 53.44 304 48 304 C48 309.28 48 314.56 48 320 C42.72 320 37.44 320 32 320 C32 325.28 32 330.56 32 336 C26.72 336 21.44 336 16 336 C16 330.72 16 325.44 16 320 C10.72 320 5.44 320 0 320 C0 314.72 0 309.44 0 304 C-5.28 304 -10.56 304 -16 304 C-16 298.72 -16 293.44 -16 288 C-21.28 288 -26.56 288 -32 288 C-32 282.72 -32 277.44 -32 272 C-37.28 272 -42.56 272 -48 272 C-48 266.72 -48 261.44 -48 256 C-53.28 256 -58.56 256 -64 256 C-64 250.72 -64 245.44 -64 240 C-69.28 240 -74.56 240 -80 240 C-80 234.72 -80 229.44 -80 224 C-85.28 224 -90.56 224 -96 224 C-96 208.16 -96 192.32 -96 176 C-101.28 176 -106.56 176 -112 176 C-112 165.44 -112 154.88 -112 144 C-117.28 144 -122.56 144 -128 144 C-128 128.16 -128 112.32 -128 96 C-133.28 96 -138.56 96 -144 96 C-144 80.16 -144 64.32 -144 48 C-138.72 48 -133.44 48 -128 48 C-128 42.72 -128 37.44 -128 32 C-101.6 32 -75.2 32 -48 32 C-48 26.72 -48 21.44 -48 16 C-32.16 16 -16.32 16 0 16 C0 10.72 0 5.44 0 0 Z " fill="#B34E24" transform="translate(240,80)"/>
<path d="M0 0 C15.84 0 31.68 0 48 0 C48 5.28 48 10.56 48 16 C53.28 16 58.56 16 64 16 C64 21.28 64 26.56 64 32 C79.84 32 95.68 32 112 32 C112 37.28 112 42.56 112 48 C122.56 48 133.12 48 144 48 C144 53.28 144 58.56 144 64 C170.4 64 196.8 64 224 64 C224 69.28 224 74.56 224 80 C229.28 80 234.56 80 240 80 C240 127.52 240 175.04 240 224 C234.72 224 229.44 224 224 224 C224 239.84 224 255.68 224 272 C218.72 272 213.44 272 208 272 C208 282.56 208 293.12 208 304 C202.72 304 197.44 304 192 304 C192 319.84 192 335.68 192 352 C186.72 352 181.44 352 176 352 C176 357.28 176 362.56 176 368 C170.72 368 165.44 368 160 368 C160 373.28 160 378.56 160 384 C154.72 384 149.44 384 144 384 C144 389.28 144 394.56 144 400 C138.72 400 133.44 400 128 400 C128 405.28 128 410.56 128 416 C122.72 416 117.44 416 112 416 C112 421.28 112 426.56 112 432 C106.72 432 101.44 432 96 432 C96 437.28 96 442.56 96 448 C90.72 448 85.44 448 80 448 C80 453.28 80 458.56 80 464 C74.72 464 69.44 464 64 464 C64 469.28 64 474.56 64 480 C58.72 480 53.44 480 48 480 C48 485.28 48 490.56 48 496 C32.16 496 16.32 496 0 496 C0 490.72 0 485.44 0 480 C-5.28 480 -10.56 480 -16 480 C-16 474.72 -16 469.44 -16 464 C-21.28 464 -26.56 464 -32 464 C-32 458.72 -32 453.44 -32 448 C-37.28 448 -42.56 448 -48 448 C-48 442.72 -48 437.44 -48 432 C-53.28 432 -58.56 432 -64 432 C-64 426.72 -64 421.44 -64 416 C-69.28 416 -74.56 416 -80 416 C-80 410.72 -80 405.44 -80 400 C-85.28 400 -90.56 400 -96 400 C-96 394.72 -96 389.44 -96 384 C-101.28 384 -106.56 384 -112 384 C-112 378.72 -112 373.44 -112 368 C-117.28 368 -122.56 368 -128 368 C-128 362.72 -128 357.44 -128 352 C-133.28 352 -138.56 352 -144 352 C-144 336.16 -144 320.32 -144 304 C-149.28 304 -154.56 304 -160 304 C-160 293.44 -160 282.88 -160 272 C-165.28 272 -170.56 272 -176 272 C-176 256.16 -176 240.32 -176 224 C-181.28 224 -186.56 224 -192 224 C-192 176.48 -192 128.96 -192 80 C-186.72 80 -181.44 80 -176 80 C-176 74.72 -176 69.44 -176 64 C-149.6 64 -123.2 64 -96 64 C-96 58.72 -96 53.44 -96 48 C-85.44 48 -74.88 48 -64 48 C-64 42.72 -64 37.44 -64 32 C-48.16 32 -32.32 32 -16 32 C-16 26.72 -16 21.44 -16 16 C-10.72 16 -5.44 16 0 16 C0 10.72 0 5.44 0 0 Z M16 16 C16 21.28 16 26.56 16 32 C10.72 32 5.44 32 0 32 C0 37.28 0 42.56 0 48 C-10.56 48 -21.12 48 -32 48 C-32 53.28 -32 58.56 -32 64 C-47.84 64 -63.68 64 -80 64 C-80 69.28 -80 74.56 -80 80 C-106.4 80 -132.8 80 -160 80 C-160 85.28 -160 90.56 -160 96 C-165.28 96 -170.56 96 -176 96 C-176 127.68 -176 159.36 -176 192 C-170.72 192 -165.44 192 -160 192 C-160 213.12 -160 234.24 -160 256 C-154.72 256 -149.44 256 -144 256 C-144 266.56 -144 277.12 -144 288 C-138.72 288 -133.44 288 -128 288 C-128 303.84 -128 319.68 -128 336 C-122.72 336 -117.44 336 -112 336 C-112 341.28 -112 346.56 -112 352 C-106.72 352 -101.44 352 -96 352 C-96 357.28 -96 362.56 -96 368 C-90.72 368 -85.44 368 -80 368 C-80 373.28 -80 378.56 -80 384 C-74.72 384 -69.44 384 -64 384 C-64 389.28 -64 394.56 -64 400 C-58.72 400 -53.44 400 -48 400 C-48 405.28 -48 410.56 -48 416 C-42.72 416 -37.44 416 -32 416 C-32 421.28 -32 426.56 -32 432 C-26.72 432 -21.44 432 -16 432 C-16 437.28 -16 442.56 -16 448 C-10.72 448 -5.44 448 0 448 C0 453.28 0 458.56 0 464 C5.28 464 10.56 464 16 464 C16 469.28 16 474.56 16 480 C21.28 480 26.56 480 32 480 C32 474.72 32 469.44 32 464 C37.28 464 42.56 464 48 464 C48 458.72 48 453.44 48 448 C53.28 448 58.56 448 64 448 C64 442.72 64 437.44 64 432 C69.28 432 74.56 432 80 432 C80 426.72 80 421.44 80 416 C85.28 416 90.56 416 96 416 C96 410.72 96 405.44 96 400 C101.28 400 106.56 400 112 400 C112 394.72 112 389.44 112 384 C117.28 384 122.56 384 128 384 C128 378.72 128 373.44 128 368 C133.28 368 138.56 368 144 368 C144 362.72 144 357.44 144 352 C149.28 352 154.56 352 160 352 C160 346.72 160 341.44 160 336 C165.28 336 170.56 336 176 336 C176 320.16 176 304.32 176 288 C181.28 288 186.56 288 192 288 C192 277.44 192 266.88 192 256 C197.28 256 202.56 256 208 256 C208 240.16 208 224.32 208 208 C213.28 208 218.56 208 224 208 C224 171.04 224 134.08 224 96 C213.44 96 202.88 96 192 96 C192 90.72 192 85.44 192 80 C170.88 80 149.76 80 128 80 C128 74.72 128 69.44 128 64 C112.16 64 96.32 64 80 64 C80 58.72 80 53.44 80 48 C69.44 48 58.88 48 48 48 C48 42.72 48 37.44 48 32 C42.72 32 37.44 32 32 32 C32 26.72 32 21.44 32 16 C26.72 16 21.44 16 16 16 Z " fill="#000000" transform="translate(240,0)"/>
<path d="M0 0 C10.56 0 21.12 0 32 0 C32 5.28 32 10.56 32 16 C47.84 16 63.68 16 80 16 C80 21.28 80 26.56 80 32 C95.84 32 111.68 32 128 32 C128 37.28 128 42.56 128 48 C133.28 48 138.56 48 144 48 C144 53.28 144 58.56 144 64 C138.72 64 133.44 64 128 64 C128 74.56 128 85.12 128 96 C122.72 96 117.44 96 112 96 C112 111.84 112 127.68 112 144 C106.72 144 101.44 144 96 144 C96 149.28 96 154.56 96 160 C90.72 160 85.44 160 80 160 C80 165.28 80 170.56 80 176 C74.72 176 69.44 176 64 176 C64 181.28 64 186.56 64 192 C58.72 192 53.44 192 48 192 C48 202.56 48 213.12 48 224 C37.44 224 26.88 224 16 224 C16 208.16 16 192.32 16 176 C10.72 176 5.44 176 0 176 C0 170.72 0 165.44 0 160 C-5.28 160 -10.56 160 -16 160 C-16 154.72 -16 149.44 -16 144 C-21.28 144 -26.56 144 -32 144 C-32 128.16 -32 112.32 -32 96 C-42.56 96 -53.12 96 -64 96 C-64 90.72 -64 85.44 -64 80 C-58.72 80 -53.44 80 -48 80 C-48 74.72 -48 69.44 -48 64 C-58.56 64 -69.12 64 -80 64 C-80 69.28 -80 74.56 -80 80 C-85.28 80 -90.56 80 -96 80 C-96 69.44 -96 58.88 -96 48 C-85.44 48 -74.88 48 -64 48 C-64 42.72 -64 37.44 -64 32 C-53.44 32 -42.88 32 -32 32 C-32 26.72 -32 21.44 -32 16 C-21.44 16 -10.88 16 0 16 C0 10.72 0 5.44 0 0 Z " fill="#C66436" transform="translate(224,112)"/>
<path d="M0 0 C5.28 0 10.56 0 16 0 C16 10.56 16 21.12 16 32 C5.44 32 -5.12 32 -16 32 C-16 37.28 -16 42.56 -16 48 C-26.56 48 -37.12 48 -48 48 C-48 53.28 -48 58.56 -48 64 C-58.56 64 -69.12 64 -80 64 C-80 69.28 -80 74.56 -80 80 C-90.56 80 -101.12 80 -112 80 C-112 90.56 -112 101.12 -112 112 C-106.72 112 -101.44 112 -96 112 C-96 106.72 -96 101.44 -96 96 C-85.44 96 -74.88 96 -64 96 C-64 101.28 -64 106.56 -64 112 C-69.28 112 -74.56 112 -80 112 C-80 117.28 -80 122.56 -80 128 C-69.44 128 -58.88 128 -48 128 C-48 143.84 -48 159.68 -48 176 C-42.72 176 -37.44 176 -32 176 C-32 181.28 -32 186.56 -32 192 C-26.72 192 -21.44 192 -16 192 C-16 197.28 -16 202.56 -16 208 C-10.72 208 -5.44 208 0 208 C0 223.84 0 239.68 0 256 C5.28 256 10.56 256 16 256 C16 277.12 16 298.24 16 320 C10.72 320 5.44 320 0 320 C0 314.72 0 309.44 0 304 C-5.28 304 -10.56 304 -16 304 C-16 298.72 -16 293.44 -16 288 C-21.28 288 -26.56 288 -32 288 C-32 282.72 -32 277.44 -32 272 C-37.28 272 -42.56 272 -48 272 C-48 266.72 -48 261.44 -48 256 C-53.28 256 -58.56 256 -64 256 C-64 250.72 -64 245.44 -64 240 C-69.28 240 -74.56 240 -80 240 C-80 234.72 -80 229.44 -80 224 C-85.28 224 -90.56 224 -96 224 C-96 208.16 -96 192.32 -96 176 C-101.28 176 -106.56 176 -112 176 C-112 165.44 -112 154.88 -112 144 C-117.28 144 -122.56 144 -128 144 C-128 128.16 -128 112.32 -128 96 C-133.28 96 -138.56 96 -144 96 C-144 80.16 -144 64.32 -144 48 C-138.72 48 -133.44 48 -128 48 C-128 42.72 -128 37.44 -128 32 C-101.6 32 -75.2 32 -48 32 C-48 26.72 -48 21.44 -48 16 C-32.16 16 -16.32 16 0 16 C0 10.72 0 5.44 0 0 Z " fill="#B95021" transform="translate(240,80)"/>
<path d="M0 0 C10.56 0 21.12 0 32 0 C32 73.92 32 147.84 32 224 C26.72 224 21.44 224 16 224 C16 208.16 16 192.32 16 176 C10.72 176 5.44 176 0 176 C0 170.72 0 165.44 0 160 C-5.28 160 -10.56 160 -16 160 C-16 154.72 -16 149.44 -16 144 C-21.28 144 -26.56 144 -32 144 C-32 128.16 -32 112.32 -32 96 C-42.56 96 -53.12 96 -64 96 C-64 90.72 -64 85.44 -64 80 C-58.72 80 -53.44 80 -48 80 C-48 74.72 -48 69.44 -48 64 C-58.56 64 -69.12 64 -80 64 C-80 69.28 -80 74.56 -80 80 C-85.28 80 -90.56 80 -96 80 C-96 69.44 -96 58.88 -96 48 C-85.44 48 -74.88 48 -64 48 C-64 42.72 -64 37.44 -64 32 C-53.44 32 -42.88 32 -32 32 C-32 26.72 -32 21.44 -32 16 C-21.44 16 -10.88 16 0 16 C0 10.72 0 5.44 0 0 Z " fill="#F7B94C" transform="translate(224,112)"/>
<path d="M0 0 C10.56 0 21.12 0 32 0 C32 5.28 32 10.56 32 16 C47.84 16 63.68 16 80 16 C80 21.28 80 26.56 80 32 C106.4 32 132.8 32 160 32 C160 37.28 160 42.56 160 48 C165.28 48 170.56 48 176 48 C176 63.84 176 79.68 176 96 C170.72 96 165.44 96 160 96 C160 111.84 160 127.68 160 144 C154.72 144 149.44 144 144 144 C144 154.56 144 165.12 144 176 C138.72 176 133.44 176 128 176 C128 191.84 128 207.68 128 224 C122.72 224 117.44 224 112 224 C112 229.28 112 234.56 112 240 C106.72 240 101.44 240 96 240 C96 245.28 96 250.56 96 256 C90.72 256 85.44 256 80 256 C80 261.28 80 266.56 80 272 C74.72 272 69.44 272 64 272 C64 277.28 64 282.56 64 288 C58.72 288 53.44 288 48 288 C48 293.28 48 298.56 48 304 C42.72 304 37.44 304 32 304 C32 309.28 32 314.56 32 320 C26.72 320 21.44 320 16 320 C16 309.44 16 298.88 16 288 C21.28 288 26.56 288 32 288 C32 282.72 32 277.44 32 272 C37.28 272 42.56 272 48 272 C48 266.72 48 261.44 48 256 C53.28 256 58.56 256 64 256 C64 250.72 64 245.44 64 240 C69.28 240 74.56 240 80 240 C80 234.72 80 229.44 80 224 C85.28 224 90.56 224 96 224 C96 218.72 96 213.44 96 208 C101.28 208 106.56 208 112 208 C112 192.16 112 176.32 112 160 C117.28 160 122.56 160 128 160 C128 149.44 128 138.88 128 128 C133.28 128 138.56 128 144 128 C144 112.16 144 96.32 144 80 C149.28 80 154.56 80 160 80 C160 74.72 160 69.44 160 64 C154.72 64 149.44 64 144 64 C144 58.72 144 53.44 144 48 C117.6 48 91.2 48 64 48 C64 42.72 64 37.44 64 32 C48.16 32 32.32 32 16 32 C16 26.72 16 21.44 16 16 C10.72 16 5.44 16 0 16 C0 10.72 0 5.44 0 0 Z " fill="#8E3620" transform="translate(256,80)"/>
<path d="M0 0 C10.56 0 21.12 0 32 0 C32 5.28 32 10.56 32 16 C26.72 16 21.44 16 16 16 C16 21.28 16 26.56 16 32 C26.56 32 37.12 32 48 32 C48 47.84 48 63.68 48 80 C53.28 80 58.56 80 64 80 C64 85.28 64 90.56 64 96 C69.28 96 74.56 96 80 96 C80 101.28 80 106.56 80 112 C85.28 112 90.56 112 96 112 C96 127.84 96 143.68 96 160 C101.28 160 106.56 160 112 160 C112 170.56 112 181.12 112 192 C106.72 192 101.44 192 96 192 C96 186.72 96 181.44 96 176 C90.72 176 85.44 176 80 176 C80 170.72 80 165.44 80 160 C74.72 160 69.44 160 64 160 C64 154.72 64 149.44 64 144 C58.72 144 53.44 144 48 144 C48 138.72 48 133.44 48 128 C42.72 128 37.44 128 32 128 C32 122.72 32 117.44 32 112 C26.72 112 21.44 112 16 112 C16 96.16 16 80.32 16 64 C10.72 64 5.44 64 0 64 C0 53.44 0 42.88 0 32 C-5.28 32 -10.56 32 -16 32 C-16 26.72 -16 21.44 -16 16 C-10.72 16 -5.44 16 0 16 C0 10.72 0 5.44 0 0 Z " fill="#DE8430" transform="translate(144,176)"/>
<path d="M0 0 C5.28 0 10.56 0 16 0 C16 15.84 16 31.68 16 48 C21.28 48 26.56 48 32 48 C32 58.56 32 69.12 32 80 C37.28 80 42.56 80 48 80 C48 95.84 48 111.68 48 128 C53.28 128 58.56 128 64 128 C64 133.28 64 138.56 64 144 C69.28 144 74.56 144 80 144 C80 149.28 80 154.56 80 160 C85.28 160 90.56 160 96 160 C96 165.28 96 170.56 96 176 C101.28 176 106.56 176 112 176 C112 181.28 112 186.56 112 192 C117.28 192 122.56 192 128 192 C128 197.28 128 202.56 128 208 C133.28 208 138.56 208 144 208 C144 213.28 144 218.56 144 224 C149.28 224 154.56 224 160 224 C160 229.28 160 234.56 160 240 C165.28 240 170.56 240 176 240 C176 245.28 176 250.56 176 256 C186.56 256 197.12 256 208 256 C208 261.28 208 266.56 208 272 C202.72 272 197.44 272 192 272 C192 277.28 192 282.56 192 288 C186.72 288 181.44 288 176 288 C176 282.72 176 277.44 176 272 C170.72 272 165.44 272 160 272 C160 266.72 160 261.44 160 256 C154.72 256 149.44 256 144 256 C144 250.72 144 245.44 144 240 C138.72 240 133.44 240 128 240 C128 234.72 128 229.44 128 224 C122.72 224 117.44 224 112 224 C112 218.72 112 213.44 112 208 C106.72 208 101.44 208 96 208 C96 202.72 96 197.44 96 192 C90.72 192 85.44 192 80 192 C80 186.72 80 181.44 80 176 C74.72 176 69.44 176 64 176 C64 170.72 64 165.44 64 160 C58.72 160 53.44 160 48 160 C48 154.72 48 149.44 48 144 C42.72 144 37.44 144 32 144 C32 128.16 32 112.32 32 96 C26.72 96 21.44 96 16 96 C16 85.44 16 74.88 16 64 C10.72 64 5.44 64 0 64 C0 42.88 0 21.76 0 0 Z " fill="#9D1111" transform="translate(80,192)"/>
<path d="M0 0 C5.28 0 10.56 0 16 0 C16 10.56 16 21.12 16 32 C5.44 32 -5.12 32 -16 32 C-16 37.28 -16 42.56 -16 48 C-31.84 48 -47.68 48 -64 48 C-64 53.28 -64 58.56 -64 64 C-90.4 64 -116.8 64 -144 64 C-144 69.28 -144 74.56 -144 80 C-149.28 80 -154.56 80 -160 80 C-160 69.44 -160 58.88 -160 48 C-133.6 48 -107.2 48 -80 48 C-80 42.72 -80 37.44 -80 32 C-64.16 32 -48.32 32 -32 32 C-32 26.72 -32 21.44 -32 16 C-21.44 16 -10.88 16 0 16 C0 10.72 0 5.44 0 0 Z " fill="#E9C5C5" transform="translate(240,32)"/>
<path d="M0 0 C5.28 0 10.56 0 16 0 C16 5.28 16 10.56 16 16 C21.28 16 26.56 16 32 16 C32 21.28 32 26.56 32 32 C42.56 32 53.12 32 64 32 C64 37.28 64 42.56 64 48 C79.84 48 95.68 48 112 48 C112 53.28 112 58.56 112 64 C133.12 64 154.24 64 176 64 C176 69.28 176 74.56 176 80 C149.6 80 123.2 80 96 80 C96 74.72 96 69.44 96 64 C80.16 64 64.32 64 48 64 C48 58.72 48 53.44 48 48 C37.44 48 26.88 48 16 48 C16 42.72 16 37.44 16 32 C10.72 32 5.44 32 0 32 C0 21.44 0 10.88 0 0 Z " fill="#8B0000" transform="translate(256,16)"/>
<path d="M0 0 C10.56 0 21.12 0 32 0 C32 5.28 32 10.56 32 16 C26.72 16 21.44 16 16 16 C16 21.28 16 26.56 16 32 C5.44 32 -5.12 32 -16 32 C-16 37.28 -16 42.56 -16 48 C-26.56 48 -37.12 48 -48 48 C-48 53.28 -48 58.56 -48 64 C-58.56 64 -69.12 64 -80 64 C-80 69.28 -80 74.56 -80 80 C-85.28 80 -90.56 80 -96 80 C-96 69.44 -96 58.88 -96 48 C-85.44 48 -74.88 48 -64 48 C-64 42.72 -64 37.44 -64 32 C-53.44 32 -42.88 32 -32 32 C-32 26.72 -32 21.44 -32 16 C-21.44 16 -10.88 16 0 16 C0 10.72 0 5.44 0 0 Z " fill="#FFFFFF" transform="translate(224,112)"/>
<path d="M0 0 C5.28 0 10.56 0 16 0 C16 10.56 16 21.12 16 32 C10.72 32 5.44 32 0 32 C0 42.56 0 53.12 0 64 C-5.28 64 -10.56 64 -16 64 C-16 79.84 -16 95.68 -16 112 C-21.28 112 -26.56 112 -32 112 C-32 90.88 -32 69.76 -32 48 C-26.72 48 -21.44 48 -16 48 C-16 37.44 -16 26.88 -16 16 C-10.72 16 -5.44 16 0 16 C0 10.72 0 5.44 0 0 Z " fill="#8B0000" transform="translate(432,224)"/>
<path d="M0 0 C5.28 0 10.56 0 16 0 C16 15.84 16 31.68 16 48 C21.28 48 26.56 48 32 48 C32 58.56 32 69.12 32 80 C37.28 80 42.56 80 48 80 C48 85.28 48 90.56 48 96 C37.44 96 26.88 96 16 96 C16 85.44 16 74.88 16 64 C10.72 64 5.44 64 0 64 C0 42.88 0 21.76 0 0 Z " fill="#9D1111" transform="translate(80,192)"/>
<path d="M0 0 C10.56 0 21.12 0 32 0 C32 36.96 32 73.92 32 112 C26.72 112 21.44 112 16 112 C16 80.32 16 48.64 16 16 C10.72 16 5.44 16 0 16 C0 10.72 0 5.44 0 0 Z " fill="#FF4500" transform="translate(432,96)"/>
<path d="M0 0 C21.12 0 42.24 0 64 0 C64 5.28 64 10.56 64 16 C53.44 16 42.88 16 32 16 C32 21.28 32 26.56 32 32 C16.16 32 0.32 32 -16 32 C-16 26.72 -16 21.44 -16 16 C-10.72 16 -5.44 16 0 16 C0 10.72 0 5.44 0 0 Z " fill="#DE8430" transform="translate(128,128)"/>
<path d="M0 0 C10.56 0 21.12 0 32 0 C32 5.28 32 10.56 32 16 C42.56 16 53.12 16 64 16 C64 21.28 64 26.56 64 32 C58.72 32 53.44 32 48 32 C48 37.28 48 42.56 48 48 C42.72 48 37.44 48 32 48 C32 42.72 32 37.44 32 32 C26.72 32 21.44 32 16 32 C16 26.72 16 21.44 16 16 C10.72 16 5.44 16 0 16 C0 10.72 0 5.44 0 0 Z " fill="#9D1111" transform="translate(224,432)"/>
<path d="M0 0 C26.4 0 52.8 0 80 0 C80 5.28 80 10.56 80 16 C53.6 16 27.2 16 0 16 C0 10.72 0 5.44 0 0 Z " fill="#8B0000" transform="translate(352,80)"/>
<path d="M0 0 C5.28 0 10.56 0 16 0 C16 10.56 16 21.12 16 32 C5.44 32 -5.12 32 -16 32 C-16 37.28 -16 42.56 -16 48 C-21.28 48 -26.56 48 -32 48 C-32 37.44 -32 26.88 -32 16 C-21.44 16 -10.88 16 0 16 C0 10.72 0 5.44 0 0 Z " fill="#E9C5C5" transform="translate(240,32)"/>
<path d="M0 0 C5.28 0 10.56 0 16 0 C16 21.12 16 42.24 16 64 C10.72 64 5.44 64 0 64 C0 42.88 0 21.76 0 0 Z " fill="#8B0000" transform="translate(400,272)"/>
<path d="M0 0 C5.28 0 10.56 0 16 0 C16 21.12 16 42.24 16 64 C10.72 64 5.44 64 0 64 C0 42.88 0 21.76 0 0 Z " fill="#FE7A48" transform="translate(64,128)"/>
<path d="M0 0 C15.84 0 31.68 0 48 0 C48 5.28 48 10.56 48 16 C37.44 16 26.88 16 16 16 C16 21.28 16 26.56 16 32 C10.72 32 5.44 32 0 32 C0 21.44 0 10.88 0 0 Z " fill="#E9C5C5" transform="translate(160,64)"/>
<path d="M0 0 C10.56 0 21.12 0 32 0 C32 10.56 32 21.12 32 32 C26.72 32 21.44 32 16 32 C16 26.72 16 21.44 16 16 C10.72 16 5.44 16 0 16 C0 10.72 0 5.44 0 0 Z " fill="#8B0000" transform="translate(432,96)"/>
<path d="M0 0 C5.28 0 10.56 0 16 0 C16 10.56 16 21.12 16 32 C10.72 32 5.44 32 0 32 C0 21.44 0 10.88 0 0 Z " fill="#FE7A48" transform="translate(112,288)"/>
<path d="M0 0 C5.28 0 10.56 0 16 0 C16 10.56 16 21.12 16 32 C10.72 32 5.44 32 0 32 C0 21.44 0 10.88 0 0 Z " fill="#FF4500" transform="translate(432,224)"/>
<path d="M0 0 C5.28 0 10.56 0 16 0 C16 10.56 16 21.12 16 32 C10.72 32 5.44 32 0 32 C0 21.44 0 10.88 0 0 Z " fill="#8B0000" transform="translate(432,192)"/>
<path d="M0 0 C5.28 0 10.56 0 16 0 C16 10.56 16 21.12 16 32 C10.72 32 5.44 32 0 32 C0 21.44 0 10.88 0 0 Z " fill="#FFFFFF" transform="translate(208,160)"/>
<path d="M0 0 C5.28 0 10.56 0 16 0 C16 10.56 16 21.12 16 32 C10.72 32 5.44 32 0 32 C0 21.44 0 10.88 0 0 Z " fill="#9D1111" transform="translate(64,96)"/>
<path d="M0 0 C10.56 0 21.12 0 32 0 C32 5.28 32 10.56 32 16 C21.44 16 10.88 16 0 16 C0 10.72 0 5.44 0 0 Z " fill="#FF4500" transform="translate(400,80)"/>
<path d="M0 0 C10.56 0 21.12 0 32 0 C32 5.28 32 10.56 32 16 C21.44 16 10.88 16 0 16 C0 10.72 0 5.44 0 0 Z " fill="#FF4500" transform="translate(336,64)"/>
<path d="M0 0 C10.56 0 21.12 0 32 0 C32 5.28 32 10.56 32 16 C21.44 16 10.88 16 0 16 C0 10.72 0 5.44 0 0 Z " fill="#8B0000" transform="translate(304,64)"/>
<path d="M0 0 C10.56 0 21.12 0 32 0 C32 5.28 32 10.56 32 16 C21.44 16 10.88 16 0 16 C0 10.72 0 5.44 0 0 Z " fill="#FF4500" transform="translate(288,48)"/>
<path d="M0 0 C5.28 0 10.56 0 16 0 C16 10.56 16 21.12 16 32 C10.72 32 5.44 32 0 32 C0 21.44 0 10.88 0 0 Z " fill="#FE7A48" transform="translate(240,32)"/>
<path d="M0 0 C5.28 0 10.56 0 16 0 C16 5.28 16 10.56 16 16 C10.72 16 5.44 16 0 16 C0 10.72 0 5.44 0 0 Z " fill="#8B0000" transform="translate(256,464)"/>
<path d="M0 0 C5.28 0 10.56 0 16 0 C16 5.28 16 10.56 16 16 C10.72 16 5.44 16 0 16 C0 10.72 0 5.44 0 0 Z " fill="#FF4500" transform="translate(272,448)"/>
<path d="M0 0 C5.28 0 10.56 0 16 0 C16 5.28 16 10.56 16 16 C10.72 16 5.44 16 0 16 C0 10.72 0 5.44 0 0 Z " fill="#9D1111" transform="translate(256,448)"/>
<path d="M0 0 C5.28 0 10.56 0 16 0 C16 5.28 16 10.56 16 16 C10.72 16 5.44 16 0 16 C0 10.72 0 5.44 0 0 Z " fill="#8B0000" transform="translate(240,448)"/>
<path d="M0 0 C5.28 0 10.56 0 16 0 C16 5.28 16 10.56 16 16 C10.72 16 5.44 16 0 16 C0 10.72 0 5.44 0 0 Z " fill="#FF4500" transform="translate(288,432)"/>
<path d="M0 0 C5.28 0 10.56 0 16 0 C16 5.28 16 10.56 16 16 C10.72 16 5.44 16 0 16 C0 10.72 0 5.44 0 0 Z " fill="#8B0000" transform="translate(272,432)"/>
<path d="M0 0 C5.28 0 10.56 0 16 0 C16 5.28 16 10.56 16 16 C10.72 16 5.44 16 0 16 C0 10.72 0 5.44 0 0 Z " fill="#FF4500" transform="translate(304,416)"/>
<path d="M0 0 C5.28 0 10.56 0 16 0 C16 5.28 16 10.56 16 16 C10.72 16 5.44 16 0 16 C0 10.72 0 5.44 0 0 Z " fill="#8B0000" transform="translate(288,416)"/>
<path d="M0 0 C5.28 0 10.56 0 16 0 C16 5.28 16 10.56 16 16 C10.72 16 5.44 16 0 16 C0 10.72 0 5.44 0 0 Z " fill="#FE7A48" transform="translate(224,416)"/>
<path d="M0 0 C5.28 0 10.56 0 16 0 C16 5.28 16 10.56 16 16 C10.72 16 5.44 16 0 16 C0 10.72 0 5.44 0 0 Z " fill="#9D1111" transform="translate(208,416)"/>
<path d="M0 0 C5.28 0 10.56 0 16 0 C16 5.28 16 10.56 16 16 C10.72 16 5.44 16 0 16 C0 10.72 0 5.44 0 0 Z " fill="#FF4500" transform="translate(320,400)"/>
<path d="M0 0 C5.28 0 10.56 0 16 0 C16 5.28 16 10.56 16 16 C10.72 16 5.44 16 0 16 C0 10.72 0 5.44 0 0 Z " fill="#8B0000" transform="translate(304,400)"/>
<path d="M0 0 C5.28 0 10.56 0 16 0 C16 5.28 16 10.56 16 16 C10.72 16 5.44 16 0 16 C0 10.72 0 5.44 0 0 Z " fill="#FE7A48" transform="translate(208,400)"/>
<path d="M0 0 C5.28 0 10.56 0 16 0 C16 5.28 16 10.56 16 16 C10.72 16 5.44 16 0 16 C0 10.72 0 5.44 0 0 Z " fill="#9D1111" transform="translate(192,400)"/>
<path d="M0 0 C5.28 0 10.56 0 16 0 C16 5.28 16 10.56 16 16 C10.72 16 5.44 16 0 16 C0 10.72 0 5.44 0 0 Z " fill="#FF4500" transform="translate(336,384)"/>
<path d="M0 0 C5.28 0 10.56 0 16 0 C16 5.28 16 10.56 16 16 C10.72 16 5.44 16 0 16 C0 10.72 0 5.44 0 0 Z " fill="#8B0000" transform="translate(320,384)"/>
<path d="M0 0 C5.28 0 10.56 0 16 0 C16 5.28 16 10.56 16 16 C10.72 16 5.44 16 0 16 C0 10.72 0 5.44 0 0 Z " fill="#FE7A48" transform="translate(192,384)"/>
<path d="M0 0 C5.28 0 10.56 0 16 0 C16 5.28 16 10.56 16 16 C10.72 16 5.44 16 0 16 C0 10.72 0 5.44 0 0 Z " fill="#9D1111" transform="translate(176,384)"/>
<path d="M0 0 C5.28 0 10.56 0 16 0 C16 5.28 16 10.56 16 16 C10.72 16 5.44 16 0 16 C0 10.72 0 5.44 0 0 Z " fill="#FF4500" transform="translate(352,368)"/>
<path d="M0 0 C5.28 0 10.56 0 16 0 C16 5.28 16 10.56 16 16 C10.72 16 5.44 16 0 16 C0 10.72 0 5.44 0 0 Z " fill="#8B0000" transform="translate(336,368)"/>
<path d="M0 0 C5.28 0 10.56 0 16 0 C16 5.28 16 10.56 16 16 C10.72 16 5.44 16 0 16 C0 10.72 0 5.44 0 0 Z " fill="#FE7A48" transform="translate(176,368)"/>
<path d="M0 0 C5.28 0 10.56 0 16 0 C16 5.28 16 10.56 16 16 C10.72 16 5.44 16 0 16 C0 10.72 0 5.44 0 0 Z " fill="#9D1111" transform="translate(160,368)"/>
<path d="M0 0 C5.28 0 10.56 0 16 0 C16 5.28 16 10.56 16 16 C10.72 16 5.44 16 0 16 C0 10.72 0 5.44 0 0 Z " fill="#FF4500" transform="translate(368,352)"/>
<path d="M0 0 C5.28 0 10.56 0 16 0 C16 5.28 16 10.56 16 16 C10.72 16 5.44 16 0 16 C0 10.72 0 5.44 0 0 Z " fill="#8B0000" transform="translate(352,352)"/>
<path d="M0 0 C5.28 0 10.56 0 16 0 C16 5.28 16 10.56 16 16 C10.72 16 5.44 16 0 16 C0 10.72 0 5.44 0 0 Z " fill="#FE7A48" transform="translate(160,352)"/>
<path d="M0 0 C5.28 0 10.56 0 16 0 C16 5.28 16 10.56 16 16 C10.72 16 5.44 16 0 16 C0 10.72 0 5.44 0 0 Z " fill="#9D1111" transform="translate(144,352)"/>
<path d="M0 0 C5.28 0 10.56 0 16 0 C16 5.28 16 10.56 16 16 C10.72 16 5.44 16 0 16 C0 10.72 0 5.44 0 0 Z " fill="#FF4500" transform="translate(384,336)"/>
<path d="M0 0 C5.28 0 10.56 0 16 0 C16 5.28 16 10.56 16 16 C10.72 16 5.44 16 0 16 C0 10.72 0 5.44 0 0 Z " fill="#8B0000" transform="translate(368,336)"/>
<path d="M0 0 C5.28 0 10.56 0 16 0 C16 5.28 16 10.56 16 16 C10.72 16 5.44 16 0 16 C0 10.72 0 5.44 0 0 Z " fill="#FE7A48" transform="translate(144,336)"/>
<path d="M0 0 C5.28 0 10.56 0 16 0 C16 5.28 16 10.56 16 16 C10.72 16 5.44 16 0 16 C0 10.72 0 5.44 0 0 Z " fill="#FF4500" transform="translate(400,320)"/>
<path d="M0 0 C5.28 0 10.56 0 16 0 C16 5.28 16 10.56 16 16 C10.72 16 5.44 16 0 16 C0 10.72 0 5.44 0 0 Z " fill="#8B0000" transform="translate(384,320)"/>
<path d="M0 0 C5.28 0 10.56 0 16 0 C16 5.28 16 10.56 16 16 C10.72 16 5.44 16 0 16 C0 10.72 0 5.44 0 0 Z " fill="#FF4500" transform="translate(416,272)"/>
<path d="M0 0 C5.28 0 10.56 0 16 0 C16 5.28 16 10.56 16 16 C10.72 16 5.44 16 0 16 C0 10.72 0 5.44 0 0 Z " fill="#9D1111" transform="translate(112,272)"/>
<path d="M0 0 C5.28 0 10.56 0 16 0 C16 5.28 16 10.56 16 16 C10.72 16 5.44 16 0 16 C0 10.72 0 5.44 0 0 Z " fill="#FE7A48" transform="translate(96,272)"/>
<path d="M0 0 C5.28 0 10.56 0 16 0 C16 5.28 16 10.56 16 16 C10.72 16 5.44 16 0 16 C0 10.72 0 5.44 0 0 Z " fill="#FFFFFF" transform="translate(160,192)"/>
<path d="M0 0 C5.28 0 10.56 0 16 0 C16 5.28 16 10.56 16 16 C10.72 16 5.44 16 0 16 C0 10.72 0 5.44 0 0 Z " fill="#FE7A48" transform="translate(80,192)"/>
<path d="M0 0 C5.28 0 10.56 0 16 0 C16 5.28 16 10.56 16 16 C10.72 16 5.44 16 0 16 C0 10.72 0 5.44 0 0 Z " fill="#9D1111" transform="translate(64,192)"/>
<path d="M0 0 C5.28 0 10.56 0 16 0 C16 5.28 16 10.56 16 16 C10.72 16 5.44 16 0 16 C0 10.72 0 5.44 0 0 Z " fill="#FFFFFF" transform="translate(176,176)"/>
<path d="M0 0 C5.28 0 10.56 0 16 0 C16 5.28 16 10.56 16 16 C10.72 16 5.44 16 0 16 C0 10.72 0 5.44 0 0 Z " fill="#DE8430" transform="translate(208,112)"/>
<path d="M0 0 C5.28 0 10.56 0 16 0 C16 5.28 16 10.56 16 16 C10.72 16 5.44 16 0 16 C0 10.72 0 5.44 0 0 Z " fill="#FF4500" transform="translate(432,96)"/>
<path d="M0 0 C5.28 0 10.56 0 16 0 C16 5.28 16 10.56 16 16 C10.72 16 5.44 16 0 16 C0 10.72 0 5.44 0 0 Z " fill="#FE7A48" transform="translate(80,96)"/>
<path d="M0 0 C5.28 0 10.56 0 16 0 C16 5.28 16 10.56 16 16 C10.72 16 5.44 16 0 16 C0 10.72 0 5.44 0 0 Z " fill="#8B0000" transform="translate(432,80)"/>
<path d="M0 0 C5.28 0 10.56 0 16 0 C16 5.28 16 10.56 16 16 C10.72 16 5.44 16 0 16 C0 10.72 0 5.44 0 0 Z " fill="#FE7A48" transform="translate(160,80)"/>
<path d="M0 0 C5.28 0 10.56 0 16 0 C16 5.28 16 10.56 16 16 C10.72 16 5.44 16 0 16 C0 10.72 0 5.44 0 0 Z " fill="#FE7A48" transform="translate(208,64)"/>
<path d="M0 0 C5.28 0 10.56 0 16 0 C16 5.28 16 10.56 16 16 C10.72 16 5.44 16 0 16 C0 10.72 0 5.44 0 0 Z " fill="#8B0000" transform="translate(272,48)"/>
<path d="M0 0 C5.28 0 10.56 0 16 0 C16 5.28 16 10.56 16 16 C10.72 16 5.44 16 0 16 C0 10.72 0 5.44 0 0 Z " fill="#FF4500" transform="translate(272,32)"/>
<path d="M0 0 C5.28 0 10.56 0 16 0 C16 5.28 16 10.56 16 16 C10.72 16 5.44 16 0 16 C0 10.72 0 5.44 0 0 Z " fill="#E9C5C5" transform="translate(240,32)"/>
</svg>
