<?xml version="1.0" encoding="UTF-8"?>
<svg version="1.1" xmlns="http://www.w3.org/2000/svg" width="114" height="109">
<path d="M0 0 C2.625 2.375 2.625 2.375 5 5 C5 5.66 5 6.32 5 7 C12.09629025 7.31461385 17.68284595 7.44572039 24 4 C23.97679688 4.80824219 23.95359375 5.61648437 23.9296875 6.44921875 C23.91164063 7.51785156 23.89359375 8.58648437 23.875 9.6875 C23.85179688 10.74324219 23.82859375 11.79898437 23.8046875 12.88671875 C24.00464831 16.07409401 24.47656695 18.20031343 26 21 C29.31544299 22.10514766 32.20410111 22.32107631 35.6875 22.5625 C36.86699219 22.64628906 38.04648438 22.73007812 39.26171875 22.81640625 C40.61716797 22.90728516 40.61716797 22.90728516 42 23 C42 23.66 42 24.32 42 25 C41.34 25 40.68 25 40 25 C39.19938913 29.34066136 38.67739985 32.90315948 39.9375 37.1875 C42.35006244 40.47735787 44.98795522 42.4459808 48.35546875 44.703125 C48.89816406 45.13109375 49.44085938 45.5590625 50 46 C50 46.66 50 47.32 50 48 C45.545 48.495 45.545 48.495 41 49 C41.350625 49.721875 41.70125 50.44375 42.0625 51.1875 C43.13259129 54.39777387 43.16342051 55.84214433 42 59 C41.319375 59.474375 40.63875 59.94875 39.9375 60.4375 C38.9784375 61.2109375 38.9784375 61.2109375 38 62 C37.66602213 65.12586875 37.66602213 65.12586875 38 68 C37.01 68.495 37.01 68.495 36 69 C35.4225 68.67 34.845 68.34 34.25 68 C30.36931651 66.27525178 26.87772068 67.70742644 23 69 C22.67 68.01 22.34 67.02 22 66 C19.69 66 17.38 66 15 66 C13.35 68.97 11.7 71.94 10 75 C8.989375 74.05125 7.97875 73.1025 6.9375 72.125 C2.4942136 68.33434923 -1.56606663 67.3214629 -7.3125 66.5625 C-12.49801401 67.17773048 -16.49247244 69.46054785 -21 72 C-21.00386719 70.87851563 -21.00386719 70.87851563 -21.0078125 69.734375 C-21.19517156 63.53965001 -21.19517156 63.53965001 -24.1875 58.3125 C-29.43189767 55.63203008 -36.3065348 56.71922637 -42 57 C-40.47793991 54.37098712 -39.15634036 52.15634036 -37 50 C-36.3574765 47.93125966 -36.3574765 47.93125966 -36 46 C-36.66 46 -37.32 46 -38 46 C-38.20625 45.278125 -38.4125 44.55625 -38.625 43.8125 C-41.31101865 38.31837094 -46.97922431 35.22764152 -52 32 C-48.46588679 29.87953208 -45.05606165 29.46800711 -41 29 C-41 27.68 -41 26.36 -41 25 C-41.99 25 -42.98 25 -44 25 C-44.5 22.375 -44.5 22.375 -44 19 C-41.60641425 16.5736254 -38.96332716 14.67802863 -36 13 C-35.34 13 -34.68 13 -34 13 C-34.33 10.69 -34.66 8.38 -35 6 C-34.195625 6.53625 -33.39125 7.0725 -32.5625 7.625 C-27.79716471 9.46425222 -24.71202918 8.7381786 -20 7 C-18.75183961 6.28205408 -17.52076247 5.53323209 -16.3125 4.75 C-13 3 -13 3 -9.5625 3.75 C-8.2940625 4.36875 -8.2940625 4.36875 -7 5 C-6.21625 4.175 -5.4325 3.35 -4.625 2.5 C-2 0 -2 0 0 0 Z " fill="#35060B" transform="translate(62,14)"/>
<path d="M0 0 C2 0 2 0 4.625 2.375 C7 5 7 5 7 7 C14.09629025 7.31461385 19.68284595 7.44572039 26 4 C25.97679688 4.80824219 25.95359375 5.61648437 25.9296875 6.44921875 C25.91164063 7.51785156 25.89359375 8.58648437 25.875 9.6875 C25.85179688 10.74324219 25.82859375 11.79898437 25.8046875 12.88671875 C26.00464831 16.07409401 26.47656695 18.20031343 28 21 C31.31544299 22.10514766 34.20410111 22.32107631 37.6875 22.5625 C38.86699219 22.64628906 40.04648438 22.73007812 41.26171875 22.81640625 C42.61716797 22.90728516 42.61716797 22.90728516 44 23 C44 23.66 44 24.32 44 25 C43.34 25 42.68 25 42 25 C41.19938913 29.34066136 40.67739985 32.90315948 41.9375 37.1875 C44.35424019 40.4830548 47.00670003 42.50189678 50.35546875 44.80078125 C50.89816406 45.19652344 51.44085938 45.59226563 52 46 C52 46.33 52 46.66 52 47 C47.05 47.495 47.05 47.495 42 48 C41.67 46.35 41.34 44.7 41 43 C40.01 43 39.02 43 38 43 C38 41.68 38 40.36 38 39 C34.37 39 30.74 39 27 39 C26.67 37.35 26.34 35.7 26 34 C25.34 34 24.68 34 24 34 C24.33 36.31 24.66 38.62 25 41 C23.35 41 21.7 41 20 41 C18.40587716 37.81175432 18.89825265 34.37103338 18.9375 30.875 C18.94201172 30.12089844 18.94652344 29.36679687 18.95117188 28.58984375 C18.96296501 26.72652873 18.98090058 24.86325445 19 23 C18.01 23 17.02 23 16 23 C16 22.34 16 21.68 16 21 C15.3709375 20.96261719 14.741875 20.92523438 14.09375 20.88671875 C8.18948851 20.43322879 3.44749854 19.32023086 -2 17 C-2 16.01 -2 15.02 -2 14 C-3.32 14 -4.64 14 -6 14 C-6.43921569 8.72941176 -6.43921569 8.72941176 -6 6 C-3.5625 3.625 -3.5625 3.625 -1 2 C-0.67 1.34 -0.34 0.68 0 0 Z " fill="#E9E8E5" transform="translate(60,14)"/>
<path d="M0 0 C2 3 2 3 2 7 C3.32 7 4.64 7 6 7 C6 7.66 6 8.32 6 9 C6.66 9 7.32 9 8 9 C9.39712274 10.95597184 10.71927629 12.9659094 12 15 C12.763125 16.03125 13.52625 17.0625 14.3125 18.125 C16 21 16 21 15.75 23.375 C15.5025 23.91125 15.255 24.4475 15 25 C16.32 25 17.64 25 19 25 C19 26.32 19 27.64 19 29 C19.99 29 20.98 29 22 29 C22.43957031 29.63421875 22.87914062 30.2684375 23.33203125 30.921875 C25.56830333 33.70805005 27.2060272 33.75849796 30.6875 34.25 C31.68136719 34.39953125 32.67523438 34.5490625 33.69921875 34.703125 C34.45847656 34.80109375 35.21773437 34.8990625 36 35 C33.22221259 30.83331889 30.09364768 30.55999039 25.43359375 29.16015625 C23 28 23 28 22.16015625 25.87109375 C22.10730469 25.25363281 22.05445313 24.63617188 22 24 C22.66 24 23.32 24 24 24 C24.09087891 22.82630859 24.09087891 22.82630859 24.18359375 21.62890625 C24.26738281 20.61699219 24.35117187 19.60507812 24.4375 18.5625 C24.51871094 17.55316406 24.59992187 16.54382813 24.68359375 15.50390625 C25 13 25 13 26 12 C27.65 12 29.3 12 31 12 C31 16.95 31 21.9 31 27 C32.80597656 27.14695312 32.80597656 27.14695312 34.6484375 27.296875 C36.22405227 27.44693355 37.79956853 27.59802912 39.375 27.75 C40.56609375 27.8428125 40.56609375 27.8428125 41.78125 27.9375 C43.93300639 28.15632268 45.92444902 28.38920487 48 29 C49.5390625 31.078125 49.5390625 31.078125 50 33 C48.02 33.495 48.02 33.495 46 34 C49.81506659 34.25870467 49.81506659 34.25870467 52.375 33 C55.3997231 31.84772453 57.79007078 31.85070097 61 32 C61 32.99 61 33.98 61 35 C59.948125 35.144375 58.89625 35.28875 57.8125 35.4375 C55.05434791 36.18309803 54.14648357 36.80166705 52.421875 39.13671875 C51.18935202 41.39280248 50.0479649 43.65294496 49 46 C48.57589844 45.59007812 48.15179688 45.18015625 47.71484375 44.7578125 C42.66471459 40.11835319 38.54276423 38.46791226 31.6875 37.5625 C26.50198599 38.17773048 22.50752756 40.46054785 18 43 C17.99613281 41.87851563 17.99613281 41.87851563 17.9921875 40.734375 C17.80482844 34.53965001 17.80482844 34.53965001 14.8125 29.3125 C9.56810233 26.63203008 2.6934652 27.71922637 -3 28 C-1.47793991 25.37098712 -0.15634036 23.15634036 2 21 C2.6425235 18.93125966 2.6425235 18.93125966 3 17 C2.34 17 1.68 17 1 17 C0.79375 16.278125 0.5875 15.55625 0.375 14.8125 C-2.31101865 9.31837094 -7.97922431 6.22764152 -13 3 C-8.5567398 0.70176197 -5.06546196 -0.43110315 0 0 Z " fill="#EDEDEA" transform="translate(23,43)"/>
<path d="M0 0 C0.7425 0.515625 1.485 1.03125 2.25 1.5625 C8.3964067 4.68704565 16.56225278 2.37023611 23 1 C22.855625 2.00417969 22.71125 3.00835938 22.5625 4.04296875 C22.20097392 6.58620429 21.84623421 9.13041881 21.5 11.67578125 C21.335 12.87589844 21.17 14.07601562 21 15.3125 C20.835 16.52550781 20.67 17.73851563 20.5 18.98828125 C20 22 20 22 19 24 C18.63434146 26.11967685 18.30620454 28.24592159 18 30.375 C17.48041031 33.9715349 16.96707058 37.49436916 16 41 C12.91140053 39.64664405 10.992036 38.19113751 8.8125 35.625 C8.30332031 35.03976563 7.79414062 34.45453125 7.26953125 33.8515625 C5.91945652 31.88253043 5.56082444 30.29164469 5 28 C3.0162233 26.71563266 3.0162233 26.71563266 1 26 C1 25.34 1 24.68 1 24 C-1.31 23.67 -3.62 23.34 -6 23 C-6 21.68 -6 20.36 -6 19 C-6.99 19 -7.98 19 -9 19 C-9.5 16.375 -9.5 16.375 -9 13 C-6.60641425 10.5736254 -3.96332716 8.67802863 -1 7 C-0.34 7 0.32 7 1 7 C0.67 4.69 0.34 2.38 0 0 Z " fill="#7F0C0C" transform="translate(27,20)"/>
<path d="M0 0 C10.86920288 0.65215217 21.78900538 4.41719487 32 8 C32 6.68 32 5.36 32 4 C34.86724686 4.57344937 35.8614515 4.8614515 38 7 C38.66666667 8.66666667 39.33333333 10.33333333 40 12 C40.66 12.66 41.32 13.32 42 14 C41.60761402 17.66226912 39.68433117 20.77780124 38 24 C38.66 24 39.32 24 40 24 C40.495 26.475 40.495 26.475 41 29 C40.01 29.495 40.01 29.495 39 30 C36.875 29.0625 36.875 29.0625 35 28 C35 27.01 35 26.02 35 25 C33.02 25 31.04 25 29 25 C29 22.69 29 20.38 29 18 C28.41734375 18.02320312 27.8346875 18.04640625 27.234375 18.0703125 C16.9909259 18.29579723 7.59872681 16.51953316 -2 13 C-1.85966889 11.02043559 -1.7125877 9.04134859 -1.5625 7.0625 C-1.48128906 5.96035156 -1.40007813 4.85820313 -1.31640625 3.72265625 C-1 1 -1 1 0 0 Z " fill="#334EE9" transform="translate(59,53)"/>
<path d="M0 0 C0.33 0 0.66 0 1 0 C1.495 3.96 1.495 3.96 2 8 C3.65 8 5.3 8 7 8 C6.505 4.535 6.505 4.535 6 1 C6.66 1 7.32 1 8 1 C8.495 3.475 8.495 3.475 9 6 C10.258125 5.814375 11.51625 5.62875 12.8125 5.4375 C15.82744268 4.99267239 17.00468461 5.00156154 20 6 C20 7.32 20 8.64 20 10 C20.99 10 21.98 10 23 10 C23.495 11.98 23.495 11.98 24 14 C27.3 14 30.6 14 34 14 C34 14.33 34 14.66 34 15 C29.545 15.495 29.545 15.495 25 16 C25.350625 16.721875 25.70125 17.44375 26.0625 18.1875 C27.14600444 21.43801331 27.22570725 22.81316116 26 26 C21.78378378 30 21.78378378 30 19 30 C19.309375 29.0925 19.61875 28.185 19.9375 27.25 C20.4634375 25.64125 20.4634375 25.64125 21 24 C21.268125 23.278125 21.53625 22.55625 21.8125 21.8125 C21.9053125 20.9153125 21.9053125 20.9153125 22 20 C20.66710346 18.49985609 20.66710346 18.49985609 19 17 C18.690625 16.154375 18.38125 15.30875 18.0625 14.4375 C17.21070839 11.85128305 17.21070839 11.85128305 14.875 10.6875 C14.25625 10.460625 13.6375 10.23375 13 10 C13 11.32 13 12.64 13 14 C8.14548856 13.57416566 4.50499077 12.91362472 0.0546875 10.83203125 C-6.07726517 8.34894015 -12.41058827 7 -19 7 C-19.33 10.96 -19.66 14.92 -20 19 C-10.10758076 22.15410469 -0.2902133 23.09360816 10 24 C10 26.31 10 28.62 10 31 C11.98 31 13.96 31 16 31 C16 31.66 16 32.32 16 33 C13.03 33.99 10.06 34.98 7 36 C6.67 35.01 6.34 34.02 6 33 C4.02 33 2.04 33 0 33 C0.33 32.34 0.66 31.68 1 31 C2.65 31 4.3 31 6 31 C6 30.01 6 29.02 6 28 C0.96643704 29.23631371 -4.02426068 30.5487427 -9 32 C-9 31.34 -9 30.68 -9 30 C-8.01 29.67 -7.02 29.34 -6 29 C-6.33 28.01 -6.66 27.02 -7 26 C-8.57201172 25.83564453 -8.57201172 25.83564453 -10.17578125 25.66796875 C-11.55476651 25.50849426 -12.93366871 25.34830034 -14.3125 25.1875 C-15.00279297 25.11724609 -15.69308594 25.04699219 -16.40429688 24.97460938 C-19.19547047 24.63751111 -21.54833532 24.26111864 -24 22.84375 C-25.57067624 19.94781568 -25.03866698 17.53685134 -24.6875 14.3125 C-24.50767578 12.54326172 -24.50767578 12.54326172 -24.32421875 10.73828125 C-24.21722656 9.83464844 -24.11023437 8.93101563 -24 8 C-25.65 8.33 -27.3 8.66 -29 9 C-29.33 11.64 -29.66 14.28 -30 17 C-30.33 17 -30.66 17 -31 17 C-31.02688151 15.35425434 -31.04634123 13.70838587 -31.0625 12.0625 C-31.07410156 11.14597656 -31.08570313 10.22945312 -31.09765625 9.28515625 C-31 7 -31 7 -30 6 C-27.9427083 5.68076508 -25.88386479 5.48838648 -23.8125 5.28125 C-21.9832467 5.18001957 -21.9832467 5.18001957 -21 4 C-14.69770774 3.64326648 -14.69770774 3.64326648 -12.09765625 4.97265625 C-9.59018608 6.20070961 -7.52439078 6.40596915 -4.75 6.625 C-3.85796875 6.69976562 -2.9659375 6.77453125 -2.046875 6.8515625 C-1.03367187 6.92503906 -1.03367187 6.92503906 0 7 C0 4.69 0 2.38 0 0 Z " fill="#161740" transform="translate(78,47)"/>
<path d="M0 0 C21.62837838 3.49324324 21.62837838 3.49324324 27 6 C27.07654536 10.51617599 27.10228696 14.59085217 26 19 C19.2142064 18.45136137 12.64990964 17.45732062 6 16 C5.67 16.99 5.34 17.98 5 19 C2.69 18.67 0.38 18.34 -2 18 C-2.27560214 11.79895188 -1.22899346 6.06815522 0 0 Z " fill="#A00D0E" transform="translate(50,33)"/>
<path d="M0 0 C-0.33 2.97 -0.66 5.94 -1 9 C-1.66 9 -2.32 9 -3 9 C-3.04898438 10.18078125 -3.09796875 11.3615625 -3.1484375 12.578125 C-3.22348879 14.13543937 -3.29903561 15.69272991 -3.375 17.25 C-3.42140625 18.41595703 -3.42140625 18.41595703 -3.46875 19.60546875 C-3.83381886 26.72431144 -3.83381886 26.72431144 -6 30 C-7.32 29.34 -8.64 28.68 -10 28 C-10 27.34 -10 26.68 -10 26 C-10.66 26 -11.32 26 -12 26 C-12.53625 24.9275 -13.0725 23.855 -13.625 22.75 C-15.30858415 19.73885845 -16.13844768 18.91041621 -19.1875 16.9375 C-22 15 -22 15 -22.875 11.75 C-22.91625 10.8425 -22.9575 9.935 -23 9 C-22.39671875 8.81824219 -21.7934375 8.63648438 -21.171875 8.44921875 C-16.89789693 7.10498371 -13.47560649 5.91950945 -10 3 C-9.34 3 -8.68 3 -8 3 C-8 2.34 -8 1.68 -8 1 C-5.29120665 -0.35439668 -2.99066732 -0.06501451 0 0 Z " fill="#D20304" transform="translate(48,25)"/>
<path d="M0 0 C2.625 2.375 2.625 2.375 5 5 C5 5.66 5 6.32 5 7 C12.09629025 7.31461385 17.68284595 7.44572039 24 4 C23.94014621 6.29240007 23.85140973 8.58406206 23.75 10.875 C23.68039063 12.78925781 23.68039063 12.78925781 23.609375 14.7421875 C23 18 23 18 21.125 19.5 C18.21656551 20.18433753 16.61788188 19.30894094 14 18 C14.66 17.67 15.32 17.34 16 17 C15.01 16.01 14.02 15.02 13 14 C13 14.66 13 15.32 13 16 C10.83125748 15.49396008 9.00032373 15.00016187 7 14 C7 13.34 7 12.68 7 12 C2.38 12.33 -2.24 12.66 -7 13 C-7.61240935 5.7735697 -7.61240935 5.7735697 -4.625 2 C-2 0 -2 0 0 0 Z " fill="#F5F3F2" transform="translate(62,14)"/>
<path d="M0 0 C2.64 0 5.28 0 8 0 C7.89300781 0.65226562 7.78601563 1.30453125 7.67578125 1.9765625 C6.91219972 7.54331818 6.47166206 11.29554942 10 16 C12.05374617 17.71819316 14.14801435 19.28539363 16.35546875 20.80078125 C16.89816406 21.19652344 17.44085938 21.59226562 18 22 C18 22.33 18 22.66 18 23 C13.05 23.495 13.05 23.495 8 24 C7.67 22.35 7.34 20.7 7 19 C6.01 19 5.02 19 4 19 C4 17.68 4 16.36 4 15 C0.7 14.67 -2.6 14.34 -6 14 C-5.67 13.34 -5.34 12.68 -5 12 C-4.01 12.33 -3.02 12.66 -2 13 C-2 12.01 -2 11.02 -2 10 C-3.32 9.67 -4.64 9.34 -6 9 C-5.34 8.01 -4.68 7.02 -4 6 C-3.34 6 -2.68 6 -2 6 C-1.855625 5.38125 -1.71125 4.7625 -1.5625 4.125 C-1 2 -1 2 0 0 Z " fill="#E2DFDE" transform="translate(94,38)"/>
<path d="M0 0 C4.29 0.33 8.58 0.66 13 1 C13 1.66 13 2.32 13 3 C13.99 3 14.98 3 16 3 C16 3.66 16 4.32 16 5 C18.97 5.495 18.97 5.495 22 6 C21.67 7.98 21.34 9.96 21 12 C19.90300781 11.91621094 18.80601563 11.83242188 17.67578125 11.74609375 C16.22137904 11.64287811 14.76695049 11.54003306 13.3125 11.4375 C12.59126953 11.38142578 11.87003906 11.32535156 11.12695312 11.26757812 C7.07280277 10.98989659 4.0487897 11.19024206 0 12 C0 8.04 0 4.08 0 0 Z " fill="#D30203" transform="translate(51,36)"/>
<path d="M0 0 C3.3294553 0.24662632 4.16872387 1.18137816 6.5 3.6875 C8.13064192 5.75925782 9.52168262 7.82459511 10.9375 10.0625 C13.31349462 13.44649233 15.74232349 15.48270452 19 18 C19.33 15.69 19.66 13.38 20 11 C20.33 11 20.66 11 21 11 C20.91253716 12.43861294 20.80434652 13.87597508 20.6875 15.3125 C20.62949219 16.11300781 20.57148437 16.91351563 20.51171875 17.73828125 C19.91793306 20.36272334 19.04219706 21.30820672 17 23 C18.65 23 20.3 23 22 23 C22.33 22.34 22.66 21.68 23 21 C23 21.99 23 22.98 23 24 C22.34 24 21.68 24 21 24 C21.33 24.99 21.66 25.98 22 27 C24.75281216 28.36306396 24.75281216 28.36306396 28 29.5 C31.3125 30.71875 31.3125 30.71875 34 32 C34.33 32.99 34.66 33.98 35 35 C33.22825181 34.91276622 31.45752623 34.80458345 29.6875 34.6875 C28.20830078 34.60048828 28.20830078 34.60048828 26.69921875 34.51171875 C23.74350106 33.95137285 22.74370302 33.41023796 21 31 C21 30.34 21 29.68 21 29 C19.68 29.33 18.36 29.66 17 30 C17.33 28.35 17.66 26.7 18 25 C16.68 25 15.36 25 14 25 C13.896875 24.278125 13.79375 23.55625 13.6875 22.8125 C12.71887704 18.84995151 10.78483548 16.01737933 8.3125 12.8125 C7 11 7 11 7 9 C6.34 9 5.68 9 5 9 C5 8.34 5 7.68 5 7 C3.68 7 2.36 7 1 7 C0.67 4.69 0.34 2.38 0 0 Z " fill="#2F100F" transform="translate(24,43)"/>
<path d="M0 0 C1.65 0 3.3 0 5 0 C5 4.95 5 9.9 5 15 C8.3 15.33 11.6 15.66 15 16 C15 16.66 15 17.32 15 18 C16.98 18.33 18.96 18.66 21 19 C20.34 19.33 19.68 19.66 19 20 C19 20.99 19 21.98 19 23 C13.96999562 23.4106126 11.09060163 22.82130717 6.83984375 20.07421875 C4.81820947 18.89385903 2.84957084 18.21773141 0.625 17.5 C-0.57125 17.005 -1.7675 16.51 -3 16 C-3.7265625 13.90625 -3.7265625 13.90625 -4 12 C-3.34 12 -2.68 12 -2 12 C-1.93941406 11.21753906 -1.87882812 10.43507813 -1.81640625 9.62890625 C-1.73261719 8.61699219 -1.64882813 7.60507812 -1.5625 6.5625 C-1.48128906 5.55316406 -1.40007813 4.54382812 -1.31640625 3.50390625 C-1 1 -1 1 0 0 Z " fill="#E1E1E1" transform="translate(49,55)"/>
<path d="M0 0 C6.75 0.75 6.75 0.75 9 3 C11.66894742 3.74917822 14.29677091 4.40538108 17 5 C17.83402344 5.18820313 18.66804688 5.37640625 19.52734375 5.5703125 C21.6834147 6.05398086 23.84087378 6.53019013 26 7 C25.67 8.32 25.34 9.64 25 11 C20.08733761 12.34718371 15.33905287 11.96401723 10.3125 11.6875 C9.44560547 11.65205078 8.57871094 11.61660156 7.68554688 11.58007812 C6.85732422 11.53689453 6.02910156 11.49371094 5.17578125 11.44921875 C4.42208252 11.41143311 3.66838379 11.37364746 2.8918457 11.3347168 C1 11 1 11 -1 9 C-0.9765625 6.8359375 -0.9765625 6.8359375 -0.625 4.375 C-0.51414063 3.55773438 -0.40328125 2.74046875 -0.2890625 1.8984375 C-0.19367187 1.27195313 -0.09828125 0.64546875 0 0 Z " fill="#2C45F9" transform="translate(61,56)"/>
<path d="M0 0 C0.33 0 0.66 0 1 0 C1 2.31 1 4.62 1 7 C1.99 6.67 2.98 6.34 4 6 C5.89470816 5.9314505 7.7916834 5.91519628 9.6875 5.9375 C10.68136719 5.94652344 11.67523438 5.95554687 12.69921875 5.96484375 C13.83810547 5.98224609 13.83810547 5.98224609 15 6 C15 6.66 15 7.32 15 8 C16.98 8.66 18.96 9.32 21 10 C21 9.34 21 8.68 21 8 C21.99 8.33 22.98 8.66 24 9 C24 9.66 24 10.32 24 11 C25.64429829 12.68873879 27.31384218 14.35305515 29 16 C30.875 18.0625 30.875 18.0625 32 20 C31.6875 22.25 31.6875 22.25 31 24 C29.68 21.69 28.36 19.38 27 17 C26.67 20.3 26.34 23.6 26 27 C25.67 27 25.34 27 25 27 C25 23.7 25 20.4 25 17 C24.01 17 23.02 17 22 17 C22 16.34 22 15.68 22 15 C21.05640625 14.94392578 21.05640625 14.94392578 20.09375 14.88671875 C14.18948851 14.43322879 9.44749854 13.32023086 4 11 C4 10.01 4 9.02 4 8 C2.68 8 1.36 8 0 8 C0 5.36 0 2.72 0 0 Z " fill="#827F7E" transform="translate(54,20)"/>
<path d="M0 0 C0 3.3 0 6.6 0 10 C1.32 10 2.64 10 4 10 C4 10.99 4 11.98 4 13 C12.91 14.98 12.91 14.98 22 17 C22 17.66 22 18.32 22 19 C22.99 19 23.98 19 25 19 C25.05395478 20.62463842 25.09277195 22.24978541 25.125 23.875 C25.14820313 24.77992187 25.17140625 25.68484375 25.1953125 26.6171875 C25 29 25 29 23 31 C23 27.7 23 24.4 23 21 C17.72722082 19.38945656 12.49642066 18.28763792 7.0625 17.375 C6.28326172 17.2409375 5.50402344 17.106875 4.70117188 16.96875 C2.80136729 16.6424032 0.90076363 16.32071377 -1 16 C-1.33 15.01 -1.66 14.02 -2 13 C-2.66 13 -3.32 13 -4 13 C-4 10.03 -4 7.06 -4 4 C-7.3 4.33 -10.6 4.66 -14 5 C-5.16778523 -1.62416107 -5.16778523 -1.62416107 0 0 Z " fill="#240807" transform="translate(54,18)"/>
<path d="M0 0 C0.33 0 0.66 0 1 0 C1.33 2.64 1.66 5.28 2 8 C3.65 8 5.3 8 7 8 C6.67 5.69 6.34 3.38 6 1 C6.66 1 7.32 1 8 1 C8.33 2.65 8.66 4.3 9 6 C10.258125 5.814375 11.51625 5.62875 12.8125 5.4375 C15.82744268 4.99267239 17.00468461 5.00156154 20 6 C20 7.32 20 8.64 20 10 C20.99 10 21.98 10 23 10 C23.33 11.32 23.66 12.64 24 14 C27.3 14 30.6 14 34 14 C34 14.33 34 14.66 34 15 C29.545 15.495 29.545 15.495 25 16 C25.350625 16.721875 25.70125 17.44375 26.0625 18.1875 C27.14600444 21.43801331 27.22570725 22.81316116 26 26 C21.78378378 30 21.78378378 30 19 30 C19.4640625 28.63875 19.4640625 28.63875 19.9375 27.25 C20.4634375 25.64125 20.4634375 25.64125 21 24 C21.268125 23.278125 21.53625 22.55625 21.8125 21.8125 C21.9053125 20.9153125 21.9053125 20.9153125 22 20 C20.66710346 18.49985609 20.66710346 18.49985609 19 17 C18.29788106 15.34795544 17.63028587 13.68076231 17 12 C16.34 11.01 15.68 10.02 15 9 C15.66 9 16.32 9 17 9 C17 8.34 17 7.68 17 7 C16.43152344 7.144375 15.86304687 7.28875 15.27734375 7.4375 C10.38744837 8.61303412 6.02953082 9.31434568 1 9 C0 8 0 8 -0.09765625 6.15234375 C-0.06510417 4.1015625 -0.03255208 2.05078125 0 0 Z " fill="#21285C" transform="translate(78,47)"/>
<path d="M0 0 C2.31 0 4.62 0 7 0 C7.66 1.32 8.32 2.64 9 4 C7.68 4.33 6.36 4.66 5 5 C8.81506659 5.25870467 8.81506659 5.25870467 11.375 4 C14.3997231 2.84772453 16.79007078 2.85070097 20 3 C20 3.99 20 4.98 20 6 C18.4221875 6.2165625 18.4221875 6.2165625 16.8125 6.4375 C14.05434791 7.18309803 13.14648357 7.80166705 11.421875 10.13671875 C10.18935202 12.39280248 9.0479649 14.65294496 8 17 C7.57589844 16.59007813 7.15179688 16.18015625 6.71484375 15.7578125 C2.59090098 11.96922332 -0.50753777 10.12091066 -6 9 C-5.67 7.68 -5.34 6.36 -5 5 C-2.03 5.33 0.94 5.66 4 6 C3.4260261 1.79819816 3.4260261 1.79819816 0 0 Z " fill="#999A9C" transform="translate(64,72)"/>
<path d="M0 0 C7.74136601 -0.10920422 15.31395526 0.02840067 23 1 C23 3.31 23 5.62 23 8 C24.98 8 26.96 8 29 8 C29 8.66 29 9.32 29 10 C26.03 10.99 23.06 11.98 20 13 C19.67 12.01 19.34 11.02 19 10 C17.02 10 15.04 10 13 10 C13.33 9.34 13.66 8.68 14 8 C15.65 8 17.3 8 19 8 C19 7.01 19 6.02 19 5 C13.96643704 6.23631371 8.97573932 7.5487427 4 9 C4 8.34 4 7.68 4 7 C4.99 6.67 5.98 6.34 7 6 C6.67 5.01 6.34 4.02 6 3 C2.99152582 1.77479736 2.99152582 1.77479736 0 1 C0 0.67 0 0.34 0 0 Z " fill="#0C1349" transform="translate(65,70)"/>
<path d="M0 0 C3.53640412 2.23972261 4.60286482 4.10798056 6 8 C6.66 8.66 7.32 9.32 8 10 C8 11.875 8 11.875 7 14 C4.00254723 16.45246136 2.02124604 17.911196 -1.875 18.25 C-2.57625 18.1675 -3.2775 18.085 -4 18 C-4.16791994 13.63408158 -4.13572553 10.79684539 -2 7 C-1.30269194 4.6756398 -0.63087848 2.34326294 0 0 Z " fill="#2B40CE" transform="translate(93,57)"/>
<path d="M0 0 C0.66 0.33 1.32 0.66 2 1 C1.71125 1.94875 1.4225 2.8975 1.125 3.875 C-0.2110958 8.52270466 -1.10192035 13.25164268 -2 18 C0.97 17.34 3.94 16.68 7 16 C6.67 17.32 6.34 18.64 6 20 C6.66 20 7.32 20 8 20 C8.33 21.65 8.66 23.3 9 25 C8.34 25.33 7.68 25.66 7 26 C4.875 25.0625 4.875 25.0625 3 24 C3 23.01 3 22.02 3 21 C1.02 21 -0.96 21 -3 21 C-3 18.69 -3 16.38 -3 14 C-6.3 14 -9.6 14 -13 14 C-13 13.67 -13 13.34 -13 13 C-9.7 13 -6.4 13 -3 13 C-3 10.36 -3 7.72 -3 5 C-5.97 4.67 -8.94 4.34 -12 4 C-12.33 3.01 -12.66 2.02 -13 1 C-8.61667943 1.82187261 -4.32059823 2.90154282 0 4 C0 2.68 0 1.36 0 0 Z " fill="#2230A4" transform="translate(91,57)"/>
<path d="M0 0 C1 1 1 1 1.0625 4.5625 C1.041875 5.696875 1.02125 6.83125 1 8 C2.32 8 3.64 8 5 8 C5 8.66 5 9.32 5 10 C2.375 11.3125 2.375 11.3125 -1 12 C-4 9.875 -4 9.875 -5.4765625 8.44921875 C-7.76493006 6.27233576 -10.34811138 4.70478554 -13 3 C-8.50716772 0.67612123 -5.09845154 -0.22167181 0 0 Z " fill="#E9E8E4" transform="translate(23,43)"/>
<path d="M0 0 C2.625 2.375 2.625 2.375 5 5 C5 5.66 5 6.32 5 7 C2 9 2 9 -2 9 C-2 9.66 -2 10.32 -2 11 C2.64586892 10.51515724 2.64586892 10.51515724 7 9 C7.66 10.65 8.32 12.3 9 14 C8.34 14 7.68 14 7 14 C7 13.34 7 12.68 7 12 C2.38 12.33 -2.24 12.66 -7 13 C-7.61240935 5.7735697 -7.61240935 5.7735697 -4.625 2 C-2 0 -2 0 0 0 Z " fill="#EBEAE8" transform="translate(62,14)"/>
<path d="M0 0 C2.64 0 5.28 0 8 0 C7.21302675 3.41021743 6.12880057 6.68885166 5 10 C4.34 9.67 3.68 9.34 3 9 C2.855625 8.34 2.71125 7.68 2.5625 7 C2.376875 6.34 2.19125 5.68 2 5 C1.01 4.67 0.02 4.34 -1 4 C-0.67 4.5775 -0.34 5.155 0 5.75 C1 8 1 8 1 12 C2.65 11.67 4.3 11.34 6 11 C6 11.99 6 12.98 6 14 C2.04 14 -1.92 14 -6 14 C-5.67 13.34 -5.34 12.68 -5 12 C-4.01 12.33 -3.02 12.66 -2 13 C-2 12.01 -2 11.02 -2 10 C-3.32 9.67 -4.64 9.34 -6 9 C-5.34 8.01 -4.68 7.02 -4 6 C-3.34 6 -2.68 6 -2 6 C-1.855625 5.38125 -1.71125 4.7625 -1.5625 4.125 C-1 2 -1 2 0 0 Z " fill="#ECEBEB" transform="translate(94,38)"/>
<path d="M0 0 C4.29 0.99 8.58 1.98 13 3 C13 5.64 13 8.28 13 11 C-7.53191489 11.57446809 -7.53191489 11.57446809 -17 8 C-13.90653225 7.06968736 -11.33711143 6.95137273 -8.12109375 7.15625 C-7.20005859 7.20910156 -6.27902344 7.26195313 -5.33007812 7.31640625 C-3.89825195 7.40728516 -3.89825195 7.40728516 -2.4375 7.5 C-0.54069354 7.61990572 1.35644382 7.73471572 3.25390625 7.84375 C4.09252197 7.89724609 4.9311377 7.95074219 5.79516602 8.00585938 C8.17842832 8.11480474 8.17842832 8.11480474 11 7 C11.33 6.01 11.66 5.02 12 4 C10.4221875 4.0928125 10.4221875 4.0928125 8.8125 4.1875 C4.84228819 3.99224368 3.12172005 3.36493943 0 1 C0 0.67 0 0.34 0 0 Z " fill="#2E46E7" transform="translate(75,59)"/>
<path d="M0 0 C0.33 0 0.66 0 1 0 C1.37116076 9.13467861 0.37063786 18.1581615 -2 27 C-5.85852918 25.42800663 -8.32218131 23.17110109 -11 20 C-11.74259349 17.68970915 -12.411438 15.354248 -13 13 C-14.51462733 10.1665257 -14.51462733 10.1665257 -16 8 C-12.64564078 9.38801071 -10.88709697 10.88629 -9 14 C-9 14.99 -9 15.98 -9 17 C-8.34 17 -7.68 17 -7 17 C-6.34 17.99 -5.68 18.98 -5 20 C-4.34 20 -3.68 20 -3 20 C-1.85768588 13.34574301 -0.77397533 6.70778622 0 0 Z " fill="#961714" transform="translate(45,34)"/>
<path d="M0 0 C2.31 0.66 4.62 1.32 7 2 C7.33 1.34 7.66 0.68 8 0 C8 0.99 8 1.98 8 3 C7.34 3 6.68 3 6 3 C6.33 3.99 6.66 4.98 7 6 C9.75281216 7.36306396 9.75281216 7.36306396 13 8.5 C16.3125 9.71875 16.3125 9.71875 19 11 C19.33 11.99 19.66 12.98 20 14 C18.22825181 13.91276622 16.45752623 13.80458345 14.6875 13.6875 C13.70136719 13.62949219 12.71523438 13.57148437 11.69921875 13.51171875 C8.74350106 12.95137285 7.74370302 12.41023796 6 10 C6 9.34 6 8.68 6 8 C4.68 8.33 3.36 8.66 2 9 C2.33 7.35 2.66 5.7 3 4 C1.68 4 0.36 4 -1 4 C-0.67 2.68 -0.34 1.36 0 0 Z " fill="#6F6F72" transform="translate(39,64)"/>
<path d="M0 0 C0.33 1.32 0.66 2.64 1 4 C2.32 4 3.64 4 5 4 C5 4.66 5 5.32 5 6 C5.66 6 6.32 6 7 6 C9.54964086 9.53659861 11.79035353 13.24360101 14 17 C13.34 17.33 12.68 17.66 12 18 C11.34 16.68 10.68 15.36 10 14 C7.69 14 5.38 14 3 14 C2.67 14.99 2.34 15.98 2 17 C2 16.01 2 15.02 2 14 C1.34 14 0.68 14 0 14 C-0.33 12.35 -0.66 10.7 -1 9 C0.65 8.34 2.3 7.68 4 7 C4 6.34 4 5.68 4 5 C2.68 5 1.36 5 0 5 C0 3.35 0 1.7 0 0 Z " fill="#BDBEB9" transform="translate(24,46)"/>
<path d="M0 0 C2.33294775 -0.04241723 4.66702567 -0.04092937 7 0 C7.33 0.33 7.66 0.66 8 1 C13.40588195 1.22524508 18.64048249 0.68057365 24 0 C24 0.66 24 1.32 24 2 C22.68 2.33 21.36 2.66 20 3 C20 4.32 20 5.64 20 7 C14.36570107 6.50576325 10.17543342 5.44124218 5 3 C3.3357865 2.32723284 1.67013418 1.65793165 0 1 C0 0.67 0 0.34 0 0 Z " fill="#060A3C" transform="translate(71,54)"/>
<path d="M0 0 C0 0.99 0 1.98 0 3 C-0.99 3 -1.98 3 -3 3 C-3 3.66 -3 4.32 -3 5 C-5.64 5.66 -8.28 6.32 -11 7 C-10.74438677 9.3431213 -10.40729228 11.67843403 -10 14 C-9.34 14.33 -8.68 14.66 -8 15 C-9.32 15.33 -10.64 15.66 -12 16 C-12 15.01 -12 14.02 -12 13 C-12.99 13 -13.98 13 -15 13 C-15.5 10.375 -15.5 10.375 -15 7 C-10.76325054 2.51584911 -6.20034424 0 0 0 Z " fill="#2E0504" transform="translate(33,26)"/>
<path d="M0 0 C0 4.29 0 8.58 0 13 C-1.32 13 -2.64 13 -4 13 C-4 10.03 -4 7.06 -4 4 C-7.3 4.33 -10.6 4.66 -14 5 C-5.78947368 -1.15789474 -5.78947368 -1.15789474 0 0 Z " fill="#160E0B" transform="translate(54,18)"/>
<path d="M0 0 C0.33 0 0.66 0 1 0 C0.67 2.97 0.34 5.94 0 9 C0.66 9 1.32 9 2 9 C2 9.66 2 10.32 2 11 C1.34 11 0.68 11 0 11 C0.061875 12.423125 0.061875 12.423125 0.125 13.875 C0.14484508 18.70727658 -0.94225804 23.30627004 -2 28 C-2.66 28 -3.32 28 -4 28 C-4.33 28.66 -4.66 29.32 -5 30 C-5.18794945 24.83139017 -4.80247308 20.39254959 -3.57421875 15.375 C-2.75660153 11.99329067 -2.12095141 8.58016024 -1.46484375 5.1640625 C-1 3 -1 3 0 0 Z " fill="#7B0201" transform="translate(50,22)"/>
<path d="M0 0 C3.125 -0.5 3.125 -0.5 7 0 C9.58902142 2.31359361 11.56652609 4.83248507 13 8 C12.65625 10.265625 12.65625 10.265625 12 12 C10.02 8.535 10.02 8.535 8 5 C7.67 8.3 7.34 11.6 7 15 C6.67 15 6.34 15 6 15 C6 11.7 6 8.4 6 5 C5.01 5 4.02 5 3 5 C3 4.34 3 3.68 3 3 C1.68 2.67 0.36 2.34 -1 2 C-0.67 1.34 -0.34 0.68 0 0 Z " fill="#605F5D" transform="translate(73,32)"/>
<path d="M0 0 C5.21979128 -0.1799928 9.07262981 0.02905192 14 2 C13.01 2.495 13.01 2.495 12 3 C12 3.99 12 4.98 12 6 C8.8125 6.3125 8.8125 6.3125 5 6 C2.0625 3.5625 2.0625 3.5625 0 1 C0 0.67 0 0.34 0 0 Z " fill="#F4F2EF" transform="translate(56,72)"/>
<path d="M0 0 C0.33 0 0.66 0 1 0 C1.33 2.64 1.66 5.28 2 8 C3.65 8 5.3 8 7 8 C6.67 5.69 6.34 3.38 6 1 C6.66 1 7.32 1 8 1 C8.33 2.65 8.66 4.3 9 6 C10.258125 5.814375 11.51625 5.62875 12.8125 5.4375 C15.82744268 4.99267239 17.00468461 5.00156154 20 6 C20 6.99 20 7.98 20 9 C19.34 9 18.68 9 18 9 C18 8.34 18 7.68 18 7 C17.35933594 7.144375 16.71867187 7.28875 16.05859375 7.4375 C10.93316038 8.53744397 6.2433218 9.33468012 1 9 C0 8 0 8 -0.09765625 6.15234375 C-0.06510417 4.1015625 -0.03255208 2.05078125 0 0 Z " fill="#706C71" transform="translate(78,47)"/>
<path d="M0 0 C0.99 0 1.98 0 3 0 C3 3.3 3 6.6 3 10 C3.66 10 4.32 10 5 10 C5 11.32 5 12.64 5 14 C3.35 14 1.7 14 0 14 C-1.41778293 11.16443413 -0.86257622 9.0091294 -0.5625 5.875 C-0.46066406 4.77929688 -0.35882813 3.68359375 -0.25390625 2.5546875 C-0.17011719 1.71164063 -0.08632812 0.86859375 0 0 Z " fill="#EDEDEE" transform="translate(80,41)"/>
<path d="M0 0 C1.65 0.33 3.3 0.66 5 1 C5.07654536 5.51617599 5.10228696 9.59085217 4 14 C2.37419034 13.88601335 0.74932843 13.75844341 -0.875 13.625 C-1.77992187 13.55539063 -2.68484375 13.48578125 -3.6171875 13.4140625 C-6 13 -6 13 -8 11 C-5.03 11 -2.06 11 1 11 C1.20625 9.741875 1.4125 8.48375 1.625 7.1875 C1.74101563 6.47980469 1.85703125 5.77210937 1.9765625 5.04296875 C2.19577848 2.68244176 2.19577848 2.68244176 0 0 Z " fill="#96130E" transform="translate(72,38)"/>
<path d="M0 0 C-0.66 3.3 -1.32 6.6 -2 10 C-3.69270833 8.50260417 -5.38541667 7.00520833 -7.078125 5.5078125 C-8.97418746 4.0202513 -10.81290005 2.99677564 -13 2 C-13 1.67 -13 1.34 -13 1 C-11.39602723 0.83147753 -9.7918131 0.66525114 -8.1875 0.5 C-7.29417969 0.4071875 -6.40085937 0.314375 -5.48046875 0.21875 C-3 0 -3 0 0 0 Z " fill="#DBD8D7" transform="translate(74,79)"/>
<path d="M0 0 C4.75 0.75 4.75 0.75 7 3 C7 3.99 7 4.98 7 6 C5.25 7.75 5.25 7.75 3 9 C0.75 8.6875 0.75 8.6875 -1 8 C-0.67 5.36 -0.34 2.72 0 0 Z " fill="#2548FB" transform="translate(92,64)"/>
<path d="M0 0 C0.66 0 1.32 0 2 0 C2 1.98 2 3.96 2 6 C2.59167969 6.26039062 3.18335938 6.52078125 3.79296875 6.7890625 C6.14027546 8.0769653 7.55024768 9.37224178 9.3125 11.375 C9.84488281 11.96023437 10.37726562 12.54546875 10.92578125 13.1484375 C12 15 12 15 11.66796875 17.2265625 C11.44753906 17.81179687 11.22710937 18.39703125 11 19 C10.9175 18.38125 10.835 17.7625 10.75 17.125 C10.18741541 14.81562433 10.18741541 14.81562433 7.9375 13.75 C7.298125 13.5025 6.65875 13.255 6 13 C6 12.34 6 11.68 6 11 C3.69 10.67 1.38 10.34 -1 10 C-0.01 9.34 0.98 8.68 2 8 C1.34 7.01 0.68 6.02 0 5 C-0.125 2.3125 -0.125 2.3125 0 0 Z " fill="#651F22" transform="translate(22,33)"/>
<path d="M0 0 C1.32 0 2.64 0 4 0 C4 0.99 4 1.98 4 3 C6.64 3.66 9.28 4.32 12 5 C12 5.99 12 6.98 12 8 C7.13103697 7.40380045 2.67209049 6.43023178 -2 5 C-2 4.34 -2 3.68 -2 3 C-1.34 3 -0.68 3 0 3 C0 2.01 0 1.02 0 0 Z " fill="#391818" transform="translate(54,28)"/>
<path d="M0 0 C0.99 0.33 1.98 0.66 3 1 C3 1.99 3 2.98 3 4 C3.66 4 4.32 4 5 4 C5.33 5.65 5.66 7.3 6 9 C0.72 9 -4.56 9 -10 9 C-7 4 -7 4 -4 2 C-4.66 3.65 -5.32 5.3 -6 7 C-3.36 7 -0.72 7 2 7 C1.67 6.401875 1.34 5.80375 1 5.1875 C0 3 0 3 0 0 Z " fill="#B6B4AC" transform="translate(30,62)"/>
<path d="M0 0 C0.78375 0.495 1.5675 0.99 2.375 1.5 C7.04921842 3.43415935 11.01442381 3.26602877 16 3 C10.52123488 6.65251008 7.56703301 7.2189011 1 7 C0.67 4.69 0.34 2.38 0 0 Z " fill="#331A13" transform="translate(27,20)"/>
<path d="M0 0 C4.95 0 9.9 0 15 0 C14 4 14 4 13 6 C10.67843403 6.40729228 8.3431213 6.74438677 6 7 C6.33 6.34 6.66 5.68 7 5 C8.65 5 10.3 5 12 5 C12 4.01 12 3.02 12 2 C6.96643704 3.23631371 1.97573932 4.5487427 -3 6 C-3 5.34 -3 4.68 -3 4 C-2.01 3.67 -1.02 3.34 0 3 C0 2.01 0 1.02 0 0 Z " fill="#4A4C4D" transform="translate(72,73)"/>
<path d="M0 0 C2.52588702 2.36292656 3.88820837 3.66462511 5 7 C5 5.35 5 3.7 5 2 C5.99 2 6.98 2 8 2 C7.67 5.96 7.34 9.92 7 14 C6.67 13.34 6.34 12.68 6 12 C5.34 12 4.68 12 4 12 C3.67 12.99 3.34 13.98 3 15 C3 11.7 3 8.4 3 5 C2.01 5 1.02 5 0 5 C0 3.35 0 1.7 0 0 Z " fill="#848587" transform="translate(80,36)"/>
<path d="M0 0 C2.64 0 5.28 0 8 0 C7.21302675 3.41021743 6.12880057 6.68885166 5 10 C4.34 9.67 3.68 9.34 3 9 C2.855625 8.34 2.71125 7.68 2.5625 7 C2.376875 6.34 2.19125 5.68 2 5 C1.01 4.67 0.02 4.34 -1 4 C-0.67 2.68 -0.34 1.36 0 0 Z " fill="#F7F6F1" transform="translate(94,38)"/>
<path d="M0 0 C-1.55367366 1.01365893 -3.11837836 2.01042256 -4.6875 3 C-5.99267578 3.8353125 -5.99267578 3.8353125 -7.32421875 4.6875 C-10.16973337 6.08325608 -11.8788594 6.26993648 -15 6 C-14.67 7.65 -14.34 9.3 -14 11 C-14.66 11 -15.32 11 -16 11 C-16 8.69 -16 6.38 -16 4 C-12.38026598 2.68373308 -9.90432869 2 -6 2 C-6 1.34 -6 0.68 -6 0 C-3 -1 -3 -1 0 0 Z " fill="#A40F16" transform="translate(40,28)"/>
<path d="M0 0 C2.33528415 0.17298401 3.69177582 0.70225369 5.37890625 2.33203125 C9 6.57211538 9 6.57211538 9 9 C7.68 9 6.36 9 5 9 C5 8.34 5 7.68 5 7 C3.68 7 2.36 7 1 7 C0.67 4.69 0.34 2.38 0 0 Z " fill="#32191A" transform="translate(24,43)"/>
<path d="M0 0 C0.66 0 1.32 0 2 0 C1.67 1.32 1.34 2.64 1 4 C1.66 4 2.32 4 3 4 C3.33 5.65 3.66 7.3 4 9 C3.01 9.495 3.01 9.495 2 10 C-0.125 9.0625 -0.125 9.0625 -2 8 C-2 7.01 -2 6.02 -2 5 C-2.99 4.67 -3.98 4.34 -5 4 C-4.360625 3.71125 -3.72125 3.4225 -3.0625 3.125 C-0.84793921 2.17176549 -0.84793921 2.17176549 0 0 Z " fill="#18204C" transform="translate(96,73)"/>
<path d="M0 0 C4.95769796 -0.29162929 8.02806853 -0.12940055 12 3 C12 3.66 12 4.32 12 5 C8.37 4.67 4.74 4.34 1 4 C0.67 2.68 0.34 1.36 0 0 Z " fill="#505255" transform="translate(47,73)"/>
<path d="M0 0 C2 3 2 3 1.625 5.6875 C1.41875 6.450625 1.2125 7.21375 1 8 C-2.76687864 8 -3.91190305 7.76462683 -7 6 C-6.34 6 -5.68 6 -5 6 C-4.67 5.01 -4.34 4.02 -4 3 C-3.01 3 -2.02 3 -1 3 C-0.67 2.01 -0.34 1.02 0 0 Z " fill="#F3F3F3" transform="translate(83,25)"/>
<path d="M0 0 C1.2380014 3.57644848 0.74926071 6.33694766 0 10 C-0.66 9.34 -1.32 8.68 -2 8 C-2.33 8.66 -2.66 9.32 -3 10 C-5.5625 10.625 -5.5625 10.625 -8 11 C-6.95833333 9.2421875 -5.91666667 7.484375 -4.875 5.7265625 C-3.84931652 4.02527333 -3.84931652 4.02527333 -4 2 C-2.68 1.34 -1.36 0.68 0 0 Z " fill="#E3DED2" transform="translate(85,18)"/>
<path d="M0 0 C6.57594056 0.48710671 12.68625945 2.15462363 19 4 C19 4.33 19 4.66 19 5 C13 4.33333333 7 3.66666667 1 3 C0.67 4.98 0.34 6.96 0 9 C-0.33 9 -0.66 9 -1 9 C-1.09765625 2.84765625 -1.09765625 2.84765625 -1 1 C-0.67 0.67 -0.34 0.34 0 0 Z " fill="#2E3DAC" transform="translate(59,53)"/>
<path d="M0 0 C1.47906892 -0.02689216 2.95827483 -0.04634621 4.4375 -0.0625 C5.26121094 -0.07410156 6.08492188 -0.08570312 6.93359375 -0.09765625 C9 0 9 0 10 1 C12.0587768 1.27953219 14.11728432 1.44734351 16.1875 1.62109375 C17.0846875 1.80865234 17.0846875 1.80865234 18 2 C18.33 2.66 18.66 3.32 19 4 C12.02330843 4.39325819 6.48343811 3.63096039 0 1 C0 0.67 0 0.34 0 0 Z " fill="#060C1A" transform="translate(65,70)"/>
<path d="M0 0 C0.99 0.33 1.98 0.66 3 1 C2.01 1.495 2.01 1.495 1 2 C0.56959776 4.28948258 0.56959776 4.28948258 0.4375 6.9375 C0.09380235 11.81239531 0.09380235 11.81239531 -1 14 C-2.65 14 -4.3 14 -6 14 C-5.67 13.01 -5.34 12.02 -5 11 C-4.34 11 -3.68 11 -3 11 C-2.86722656 10.28972656 -2.73445313 9.57945313 -2.59765625 8.84765625 C-2.42105469 7.92855469 -2.24445312 7.00945313 -2.0625 6.0625 C-1.88847656 5.14597656 -1.71445312 4.22945312 -1.53515625 3.28515625 C-1 1 -1 1 0 0 Z " fill="#170001" transform="translate(47,52)"/>
<path d="M0 0 C4.95769796 -0.29162929 8.02806853 -0.12940055 12 3 C12 3.66 12 4.32 12 5 C7.97007218 4.44687265 3.97977076 3.8441938 0 3 C0 2.01 0 1.02 0 0 Z " fill="#DBDED9" transform="translate(59,28)"/>
<path d="M0 0 C3.51111406 2.22370557 4.69457163 4.08371489 6 8 C6.33 8.66 6.66 9.32 7 10 C6.4225 9.690625 5.845 9.38125 5.25 9.0625 C3.15705816 8.07416636 1.25464725 7.4831387 -1 7 C-1.04254356 5.00045254 -1.04080783 2.99958364 -1 1 C-0.67 0.67 -0.34 0.34 0 0 Z " fill="#3345C5" transform="translate(93,57)"/>
<path d="M0 0 C0.99 0.33 1.98 0.66 3 1 C2.67 2.65 2.34 4.3 2 6 C2.99 6.33 3.98 6.66 5 7 C5 7.99 5 8.98 5 10 C3.68 10.33 2.36 10.66 1 11 C1.66 11.33 2.32 11.66 3 12 C2.01 12 1.02 12 0 12 C0 8.04 0 4.08 0 0 Z " fill="#C1C0C2" transform="translate(87,41)"/>
<path d="M0 0 C0.33 0 0.66 0 1 0 C1.33 2.64 1.66 5.28 2 8 C5.3 8.33 8.6 8.66 12 9 C12 9.33 12 9.66 12 10 C10.3603125 10.2165625 10.3603125 10.2165625 8.6875 10.4375 C5.06877013 10.88288104 5.06877013 10.88288104 2 12 C-0.1875 11.0625 -0.1875 11.0625 -2 10 C-1.01 10 -0.02 10 1 10 C0.67 9.34 0.34 8.68 0 8 C-0.13415472 5.3276379 -0.04318541 2.67749512 0 0 Z " fill="#BEBDC2" transform="translate(52,62)"/>
<path d="M0 0 C3.35435922 1.38801071 5.11290303 2.88629 7 6 C7 6.99 7 7.98 7 9 C7.66 9 8.32 9 9 9 C10.38232443 10.62626404 11.71937515 12.2925002 13 14 C9.63056128 13.39831451 7.50924126 12.34195851 5 10 C3.9375 7.625 3.9375 7.625 3 5 C2.02763513 3.3170608 1.03435556 1.64556566 0 0 Z " fill="#B81312" transform="translate(29,42)"/>
<path d="M0 0 C0.66 1.65 1.32 3.3 2 5 C0.68 4.34 -0.64 3.68 -2 3 C-2.33 3.33 -2.66 3.66 -3 4 C-5.33297433 4.04092937 -7.66705225 4.04241723 -10 4 C-10 3.34 -10 2.68 -10 2 C-6.49223216 0.39644899 -3.85645121 -0.22036864 0 0 Z " fill="#F6FAF8" transform="translate(70,21)"/>
<path d="M0 0 C2.22972273 0.11465421 4.45878753 0.24214766 6.6875 0.375 C7.92886719 0.44460937 9.17023438 0.51421875 10.44921875 0.5859375 C13.69317772 0.96422094 16.06567185 1.61979976 19 3 C19 3.33 19 3.66 19 4 C12.1781317 4.38614349 6.50422293 3.00865708 0 1 C0 0.67 0 0.34 0 0 Z " fill="#2D3EB0" transform="translate(58,66)"/>
<path d="M0 0 C7.36603774 0.60377358 7.36603774 0.60377358 10 2.25 C11.33418933 4.58483133 11.21422686 6.35786868 11 9 C10.67 7.68 10.34 6.36 10 5 C7.69 4.67 5.38 4.34 3 4 C3 3.34 3 2.68 3 2 C2.01 2 1.02 2 0 2 C0 1.34 0 0.68 0 0 Z " fill="#B6120F" transform="translate(64,37)"/>
<path d="M0 0 C2 2 2 2 2 6 C3.32 6 4.64 6 6 6 C6 5.34 6 4.68 6 4 C7.32 4.33 8.64 4.66 10 5 C5.05 7.475 5.05 7.475 0 10 C0 6.7 0 3.4 0 0 Z " fill="#B8B3A8" transform="translate(41,76)"/>
<path d="M0 0 C2 3 2 3 1.9375 5.4375 C0.70291335 8.81203684 -1.03712904 10.04884108 -4 12 C-4.66 12 -5.32 12 -6 12 C-5.8125 10.125 -5.8125 10.125 -5 8 C-2.4375 6.75 -2.4375 6.75 0 6 C0 4.02 0 2.04 0 0 Z " fill="#04061E" transform="translate(103,65)"/>
<path d="M0 0 C0.33 0 0.66 0 1 0 C1 2.31 1 4.62 1 7 C1.99 6.67 2.98 6.34 4 6 C5.89470816 5.9314505 7.7916834 5.91519628 9.6875 5.9375 C10.68136719 5.94652344 11.67523438 5.95554687 12.69921875 5.96484375 C13.83810547 5.98224609 13.83810547 5.98224609 15 6 C15 6.33 15 6.66 15 7 C11.7 7.33 8.4 7.66 5 8 C4.67 8.99 4.34 9.98 4 11 C4 10.01 4 9.02 4 8 C2.68 8 1.36 8 0 8 C0 5.36 0 2.72 0 0 Z " fill="#989093" transform="translate(54,20)"/>
<path d="M0 0 C0.66 0.33 1.32 0.66 2 1 C2 2.65 2 4.3 2 6 C2.66 6 3.32 6 4 6 C4 6.66 4 7.32 4 8 C4.66 8.33 5.32 8.66 6 9 C4.68 9.33 3.36 9.66 2 10 C2 9.01 2 8.02 2 7 C1.01 7 0.02 7 -1 7 C-1.04254356 5.00045254 -1.04080783 2.99958364 -1 1 C-0.67 0.67 -0.34 0.34 0 0 Z " fill="#1E0402" transform="translate(19,32)"/>
<path d="M0 0 C0.33 0 0.66 0 1 0 C0.67 2.97 0.34 5.94 0 9 C0.66 9 1.32 9 2 9 C2 9.66 2 10.32 2 11 C1.34 11 0.68 11 0 11 C0 11.99 0 12.98 0 14 C-0.66 14 -1.32 14 -2 14 C-2.1799928 8.78020872 -1.97094808 4.92737019 0 0 Z " fill="#4B0301" transform="translate(50,22)"/>
<path d="M0 0 C0 0.99 0 1.98 0 3 C-4.455 3.495 -4.455 3.495 -9 4 C-8.67 3.01 -8.34 2.02 -8 1 C-5.29120665 -0.35439668 -2.99066732 -0.06501451 0 0 Z " fill="#C1C1C7" transform="translate(84,75)"/>
<path d="M0 0 C2.475 0.99 2.475 0.99 5 2 C5 2.99 5 3.98 5 5 C2.36 5 -0.28 5 -3 5 C-1.125 1.125 -1.125 1.125 0 0 Z " fill="#F6F9F2" transform="translate(27,64)"/>
<path d="M0 0 C0 0.66 0 1.32 0 2 C-4.15267176 5.11450382 -4.15267176 5.11450382 -7.3125 4.6875 C-7.869375 4.460625 -8.42625 4.23375 -9 4 C-9 3.01 -9 2.02 -9 1 C-5.92677456 0.08941469 -3.19902639 -0.08886184 0 0 Z " fill="#070715" transform="translate(95,54)"/>
<path d="M0 0 C2.05078125 0.03255208 4.1015625 0.06510417 6.15234375 0.09765625 C6.15234375 0.75765625 6.15234375 1.41765625 6.15234375 2.09765625 C3.84234375 2.42765625 1.53234375 2.75765625 -0.84765625 3.09765625 C-1.17765625 5.73765625 -1.50765625 8.37765625 -1.84765625 11.09765625 C-2.17765625 11.09765625 -2.50765625 11.09765625 -2.84765625 11.09765625 C-2.87453776 9.45191059 -2.89399748 7.80604212 -2.91015625 6.16015625 C-2.92175781 5.24363281 -2.93335938 4.32710937 -2.9453125 3.3828125 C-2.82618856 0.59531224 -2.79215837 0.14757708 0 0 Z " fill="#1B1316" transform="translate(49.84765625,52.90234375)"/>
<path d="M0 0 C2.475 0.495 2.475 0.495 5 1 C5.07654536 5.51617599 5.10228696 9.59085217 4 14 C3.67 14 3.34 14 3 14 C2.92652344 12.86111328 2.92652344 12.86111328 2.8515625 11.69921875 C2.77679688 10.70535156 2.70203125 9.71148437 2.625 8.6875 C2.55539063 7.70136719 2.48578125 6.71523438 2.4140625 5.69921875 C2.16134528 2.78471567 2.16134528 2.78471567 0 0 Z " fill="#6D100F" transform="translate(72,38)"/>
<path d="M0 0 C0 0.99 0 1.98 0 3 C-0.99 2.34 -1.98 1.68 -3 1 C-3 1.66 -3 2.32 -3 3 C-7.455 3.495 -7.455 3.495 -12 4 C-12.33 3.34 -12.66 2.68 -13 2 C-8.46298506 0.54815522 -4.81938524 -0.23509196 0 0 Z " fill="#AFAEA4" transform="translate(23,43)"/>
<path d="M0 0 C0 0.99 0 1.98 0 3 C-0.66 3 -1.32 3 -2 3 C-2 2.34 -2 1.68 -2 1 C-2.9075 1.165 -3.815 1.33 -4.75 1.5 C-8 2 -8 2 -12 2 C-12 1.34 -12 0.68 -12 0 C-7.91556885 -1.53166168 -4.20544343 -0.63081652 0 0 Z " fill="#525157" transform="translate(98,53)"/>
<path d="M0 0 C1.65 0.33 3.3 0.66 5 1 C5 2.98 5 4.96 5 7 C2 7 2 7 0.3125 5.5 C-0.120625 5.005 -0.55375 4.51 -1 4 C-0.34 3.67 0.32 3.34 1 3 C0.67 2.01 0.34 1.02 0 0 Z " fill="#C0BDBB" transform="translate(37,67)"/>
<path d="M0 0 C6.09411765 4.61176471 6.09411765 4.61176471 8 8 C7.6875 10.25 7.6875 10.25 7 12 C6.87625 11.071875 6.87625 11.071875 6.75 10.125 C6.37875 9.073125 6.37875 9.073125 6 8 C5.0409375 7.566875 5.0409375 7.566875 4.0625 7.125 C2 6 2 6 0.75 2.875 C0.5025 1.92625 0.255 0.9775 0 0 Z " fill="#801517" transform="translate(26,40)"/>
<path d="M0 0 C1.32 0.33 2.64 0.66 4 1 C4.33 3.31 4.66 5.62 5 8 C4.01 8 3.02 8 2 8 C0.74335022 5.09399739 0 3.20395416 0 0 Z " fill="#BDBEBF" transform="translate(93,42)"/>
<path d="M0 0 C0.99 0 1.98 0 3 0 C4.6875 2.5 4.6875 2.5 6 5 C4.02 5.33 2.04 5.66 0 6 C-1.125 2.25 -1.125 2.25 0 0 Z " fill="#D6DAD5" transform="translate(42,72)"/>
<path d="M0 0 C2.31 0 4.62 0 7 0 C7.66 1.32 8.32 2.64 9 4 C7.35 4.33 5.7 4.66 4 5 C3.67 4.01 3.34 3.02 3 2 C2.01 1.34 1.02 0.68 0 0 Z " fill="#B1B1B1" transform="translate(64,72)"/>
<path d="M0 0 C0.33 0.66 0.66 1.32 1 2 C3.52733235 2.65555119 3.52733235 2.65555119 6 3 C6.33 4.65 6.66 6.3 7 8 C6.34 8 5.68 8 5 8 C4.67 6.68 4.34 5.36 4 4 C3.34 4 2.68 4 2 4 C1.67 4.66 1.34 5.32 1 6 C0.01 4.68 -0.98 3.36 -2 2 C-1.34 2 -0.68 2 0 2 C0 1.34 0 0.68 0 0 Z " fill="#303250" transform="translate(95,54)"/>
<path d="M0 0 C0.33 1.32 0.66 2.64 1 4 C2.32 4 3.64 4 5 4 C5 4.66 5 5.32 5 6 C5.66 6 6.32 6 7 6 C7.33 6.99 7.66 7.98 8 9 C6.02 9 4.04 9 2 9 C2 8.34 2 7.68 2 7 C2.66 7 3.32 7 4 7 C4 6.34 4 5.68 4 5 C2.68 5 1.36 5 0 5 C0 3.35 0 1.7 0 0 Z " fill="#969096" transform="translate(24,46)"/>
<path d="M0 0 C2.31 0.66 4.62 1.32 7 2 C7.33 1.34 7.66 0.68 8 0 C8 0.99 8 1.98 8 3 C7.01 3 6.02 3 5 3 C4.67 3.99 4.34 4.98 4 6 C4 5.34 4 4.68 4 4 C2.35 4 0.7 4 -1 4 C-0.67 2.68 -0.34 1.36 0 0 Z " fill="#555659" transform="translate(39,64)"/>
<path d="M0 0 C2 1.3125 2 1.3125 4 4 C4.36089448 7.68855385 4.22933459 11.3051649 4 15 C3.67 15 3.34 15 3 15 C3 11.7 3 8.4 3 5 C2.01 5 1.02 5 0 5 C0 3.35 0 1.7 0 0 Z " fill="#BCB6B7" transform="translate(80,36)"/>
<path d="M0 0 C3.96 0 7.92 0 12 0 C12 0.66 12 1.32 12 2 C8.7 1.67 5.4 1.34 2 1 C1.67 1.99 1.34 2.98 1 4 C0.34 4 -0.32 4 -1 4 C-0.67 2.68 -0.34 1.36 0 0 Z " fill="#C9C7BE" transform="translate(92,37)"/>
<path d="M0 0 C-1.65 0.33 -3.3 0.66 -5 1 C-4.34 3.31 -3.68 5.62 -3 8 C-5 6.25 -5 6.25 -7 4 C-7 2.68 -7 1.36 -7 0 C-2.25 -1.125 -2.25 -1.125 0 0 Z " fill="#BF0607" transform="translate(32,34)"/>
<path d="M0 0 C1.5 1.375 1.5 1.375 3 3 C3 3.66 3 4.32 3 5 C1.35 5.66 -0.3 6.32 -2 7 C-2 3 -2 3 0 0 Z " fill="#BBB6B5" transform="translate(85,30)"/>
<path d="M0 0 C0.99 0 1.98 0 3 0 C2.49396008 2.16874252 2.00016187 3.99967627 1 6 C-1.32156597 6.40729228 -3.6568787 6.74438677 -6 7 C-5.67 6.34 -5.34 5.68 -5 5 C-3.35 5 -1.7 5 0 5 C0 3.35 0 1.7 0 0 Z " fill="#363745" transform="translate(84,73)"/>
<path d="M0 0 C1.65 0.33 3.3 0.66 5 1 C4.01 1.495 4.01 1.495 3 2 C3.33 3.32 3.66 4.64 4 6 C2.35 5.67 0.7 5.34 -1 5 C-0.67 3.35 -0.34 1.7 0 0 Z " fill="#E9E4E0" transform="translate(27,60)"/>
<path d="M0 0 C2.64 0.66 5.28 1.32 8 2 C8 2.99 8 3.98 8 5 C5.69 4.67 3.38 4.34 1 4 C0.67 2.68 0.34 1.36 0 0 Z " fill="#3B0C0B" transform="translate(58,31)"/>
<path d="M0 0 C1.65 0 3.3 0 5 0 C5.33 0.99 5.66 1.98 6 3 C4.02 3.33 2.04 3.66 0 4 C0 2.68 0 1.36 0 0 Z " fill="#C0BFBD" transform="translate(61,18)"/>
<path d="M0 0 C0.721875 0.144375 1.44375 0.28875 2.1875 0.4375 C3.5796875 0.7159375 3.5796875 0.7159375 5 1 C6.66666667 1.33333333 8.33333333 1.66666667 10 2 C10 2.66 10 3.32 10 4 C7.03 3.67 4.06 3.34 1 3 C0.67 2.01 0.34 1.02 0 0 Z " fill="#283EB2" transform="translate(78,58)"/>
<path d="M0 0 C0.99 0.33 1.98 0.66 3 1 C2.67 1.99 2.34 2.98 2 4 C-1.375 4.125 -1.375 4.125 -5 4 C-5.66 3.34 -6.32 2.68 -7 2 C-4.69 2 -2.38 2 0 2 C0 1.34 0 0.68 0 0 Z " fill="#F6F8F3" transform="translate(20,44)"/>
<path d="M0 0 C1.98 0.495 1.98 0.495 4 1 C4 2.32 4 3.64 4 5 C1.525 4.01 1.525 4.01 -1 3 C-0.67 2.01 -0.34 1.02 0 0 Z " fill="#B2AC9E" transform="translate(95,78)"/>
<path d="M0 0 C0.33 0 0.66 0 1 0 C1.12375 0.78375 1.2475 1.5675 1.375 2.375 C1.79117993 5.14057822 1.79117993 5.14057822 4 7 C2.0625 7.5625 2.0625 7.5625 0 8 C-0.33 7.67 -0.66 7.34 -1 7 C-0.71269945 4.66055264 -0.38063221 2.3260857 0 0 Z " fill="#2B48ED" transform="translate(92,65)"/>
<path d="M0 0 C0.33 0 0.66 0 1 0 C1.33 3.3 1.66 6.6 2 10 C0.68 10 -0.64 10 -2 10 C-2 8.68 -2 7.36 -2 6 C-1.34 6 -0.68 6 0 6 C0 4.02 0 2.04 0 0 Z " fill="#3C4CCB" transform="translate(59,56)"/>
<path d="M0 0 C2.01920337 1.30406884 4.01924973 2.63823419 6 4 C6 4.33 6 4.66 6 5 C2.7 5.33 -0.6 5.66 -4 6 C-1 4 -1 4 1 4 C0.67 2.68 0.34 1.36 0 0 Z " fill="#CCC8C4" transform="translate(106,56)"/>
<path d="M0 0 C-1.32 0.99 -2.64 1.98 -4 3 C-4.33 2.34 -4.66 1.68 -5 1 C-7.32156597 0.59270772 -9.6568787 0.25561323 -12 0 C-12 -0.33 -12 -0.66 -12 -1 C-3.42857143 -2.42857143 -3.42857143 -2.42857143 0 0 Z " fill="#E5E4E0" transform="translate(83,23)"/>
<path d="M0 0 C1.98 0.99 3.96 1.98 6 3 C6 3.66 6 4.32 6 5 C4.35 5 2.7 5 1 5 C0.67 3.35 0.34 1.7 0 0 Z " fill="#B7B5A1" transform="translate(27,20)"/>
<path d="M0 0 C0.103125 0.639375 0.20625 1.27875 0.3125 1.9375 C0.539375 2.618125 0.76625 3.29875 1 4 C1.99 4.33 2.98 4.66 4 5 C2.35 5.66 0.7 6.32 -1 7 C-1.625 5.1875 -1.625 5.1875 -2 3 C-1.34 2.01 -0.68 1.02 0 0 Z " fill="#07040E" transform="translate(86,76)"/>
<path d="M0 0 C2.97 0 5.94 0 9 0 C9.33 0.66 9.66 1.32 10 2 C6.18510326 3.46726798 3.70988378 2.43336419 0 1 C0 0.67 0 0.34 0 0 Z " fill="#060833" transform="translate(65,70)"/>
<path d="M0 0 C0.33 0.99 0.66 1.98 1 3 C0.67 3.66 0.34 4.32 0 5 C-1.65 5 -3.3 5 -5 5 C-4 2 -4 2 -1.9375 0.8125 C-1.298125 0.544375 -0.65875 0.27625 0 0 Z " fill="#0E070A" transform="translate(46,61)"/>
<path d="M0 0 C0 1.32 0 2.64 0 4 C-1.98 4 -3.96 4 -6 4 C-5.67 3.01 -5.34 2.02 -5 1 C-2 0 -2 0 0 0 Z " fill="#85171D" transform="translate(50,21)"/>
<path d="M0 0 C0 0.99 0 1.98 0 3 C-2.31 3 -4.62 3 -7 3 C-4.49955934 -0.00052879 -4.2621484 0 0 0 Z " fill="#E9EBE8" transform="translate(68,75)"/>
<path d="M0 0 C0.66 0.33 1.32 0.66 2 1 C1.34 3.31 0.68 5.62 0 8 C-0.66 8 -1.32 8 -2 8 C-2.33 6.68 -2.66 5.36 -3 4 C-2.01 4 -1.02 4 0 4 C0 2.68 0 1.36 0 0 Z " fill="#131F8E" transform="translate(91,57)"/>
<path d="M0 0 C0.66 0 1.32 0 2 0 C1.67 1.65 1.34 3.3 1 5 C-0.65 5.33 -2.3 5.66 -4 6 C-2.7260411 3.96166576 -1.38938077 1.96147874 0 0 Z " fill="#C2C1C2" transform="translate(81,23)"/>
<path d="M0 0 C-3.00617269 3.00617269 -5.82381598 2.59585316 -10 3 C-6.68152292 -0.06320961 -4.44849969 -0.3033068 0 0 Z " fill="#260102" transform="translate(50,20)"/>
<path d="" fill="#565237" transform="translate(0,0)"/>
</svg>
